<svg width="23" height="22" viewBox="0 0 23 22" fill="none" xmlns="http://www.w3.org/2000/svg">
<g clip-path="url(#clip0_2_45242)">
<mask id="mask0_2_45242" style="mask-type:luminance" maskUnits="userSpaceOnUse" x="0" y="-1" width="23" height="23">
<path d="M11.2693 21.9819C5.19377 21.9819 0.269287 17.0574 0.269287 10.9819C0.269287 4.90636 5.19377 -0.0181236 11.2693 -0.0181236C17.3448 -0.0181236 22.2693 4.90636 22.2693 10.9819C22.2693 17.0574 17.3448 21.9819 11.2693 21.9819Z" fill="white"/>
</mask>
<g mask="url(#mask0_2_45242)">
<path fill-rule="evenodd" clip-rule="evenodd" d="M11.2695 10.9895L-4.28894 10.8936L-4.27486 10.3216L11.2695 10.9895Z" fill="#FEFEFF"/>
<path fill-rule="evenodd" clip-rule="evenodd" d="M11.2693 10.9886L-4.27771 10.4157L-4.25395 9.93878L11.2693 10.9886Z" fill="#FDFEFF"/>
<path fill-rule="evenodd" clip-rule="evenodd" d="M11.2688 10.9899L-4.25964 10.036L-4.22444 9.55988L11.2688 10.9899Z" fill="#FCFDFF"/>
<path fill-rule="evenodd" clip-rule="evenodd" d="M11.2695 10.9911L-4.23083 9.65617L-4.1842 9.18097L11.2695 10.9911Z" fill="#FBFCFF"/>
<path fill-rule="evenodd" clip-rule="evenodd" d="M11.2692 10.9867L-4.19324 9.2716L-4.13516 8.79816L11.2692 10.9867Z" fill="#FAFCFF"/>
<path fill-rule="evenodd" clip-rule="evenodd" d="M11.27 10.9892L-4.14587 8.89572L-4.07635 8.42316L11.27 10.9892Z" fill="#F9FBFF"/>
<path fill-rule="evenodd" clip-rule="evenodd" d="M11.2688 10.99L-4.0907 8.51808L-4.00974 8.04816L11.2688 10.99Z" fill="#F8FAFF"/>
<path fill-rule="evenodd" clip-rule="evenodd" d="M11.2691 10.989L-4.02527 8.14132L-3.93287 7.67316L11.2691 10.989Z" fill="#F7FAFF"/>
<path fill-rule="evenodd" clip-rule="evenodd" d="M11.2694 10.994L-3.95105 7.77237L-3.84633 7.30597L11.2694 10.994Z" fill="#F6F9FF"/>
<path fill-rule="evenodd" clip-rule="evenodd" d="M11.2693 10.9886L-3.86755 7.39385L-3.75139 6.93097L11.2693 10.9886Z" fill="#F5F8FF"/>
<path fill-rule="evenodd" clip-rule="evenodd" d="M11.2698 10.9893L-3.7738 7.02402L-3.64708 6.56378L11.2698 10.9893Z" fill="#F4F8FF"/>
<path fill-rule="evenodd" clip-rule="evenodd" d="M11.2702 10.9864L-3.67224 6.65331L-3.5332 6.19659L11.2702 10.9864Z" fill="#F3F7FF"/>
<path fill-rule="evenodd" clip-rule="evenodd" d="M11.2701 10.9848L-3.5614 6.28651L-3.41092 5.83331L11.2701 10.9848Z" fill="#F2F6FF"/>
<path fill-rule="evenodd" clip-rule="evenodd" d="M11.2691 10.9923L-3.44275 5.93141L-3.28171 5.48173L11.2691 10.9923Z" fill="#F1F6FF"/>
<path fill-rule="evenodd" clip-rule="evenodd" d="M11.2701 10.9924L-3.31238 5.57156L-3.14078 5.12628L11.2701 10.9924Z" fill="#F0F5FF"/>
<path fill-rule="evenodd" clip-rule="evenodd" d="M11.2691 10.9889L-3.17615 5.21169L-2.99399 4.77081L11.2691 10.9889Z" fill="#EFF4FF"/>
<path fill-rule="evenodd" clip-rule="evenodd" d="M11.2695 10.9888L-3.02966 4.85876L-2.83606 4.42316L11.2695 10.9888Z" fill="#EEF3FF"/>
<path fill-rule="evenodd" clip-rule="evenodd" d="M11.2684 10.9892L-2.87585 4.51061L-2.67169 4.07941L11.2684 10.9892Z" fill="#EDF3FF"/>
<path fill-rule="evenodd" clip-rule="evenodd" d="M11.2696 10.9899L-2.71179 4.16636L-2.49707 3.73956L11.2696 10.9899Z" fill="#ECF2FF"/>
<path fill-rule="evenodd" clip-rule="evenodd" d="M11.2694 10.9892L-2.54041 3.82427L-2.31513 3.40363L11.2694 10.9892Z" fill="#EBF1FF"/>
<path fill-rule="evenodd" clip-rule="evenodd" d="M11.2687 10.9929L-2.36072 3.49174L-2.12576 3.0755L11.2687 10.9929Z" fill="#EAF1FF"/>
<path fill-rule="evenodd" clip-rule="evenodd" d="M11.2689 10.9942L-2.17224 3.16048L-1.92672 2.75128L11.2689 10.9942Z" fill="#E9F0FF"/>
<path fill-rule="evenodd" clip-rule="evenodd" d="M11.2699 10.9921L-1.97498 2.83098L-1.71978 2.42706L11.2699 10.9921Z" fill="#E8EFFF"/>
<path fill-rule="evenodd" clip-rule="evenodd" d="M11.2698 10.9877L-1.77087 2.50363L-1.50511 2.10675L11.2698 10.9877Z" fill="#E7EFFF"/>
<path fill-rule="evenodd" clip-rule="evenodd" d="M11.2702 10.9859L-1.55847 2.18409L-1.28391 1.79425L11.2702 10.9859Z" fill="#E6EEFF"/>
<path fill-rule="evenodd" clip-rule="evenodd" d="M11.2694 10.9865L-1.33923 1.87324L-1.05499 1.48956L11.2694 10.9865Z" fill="#E5EDFF"/>
<path fill-rule="evenodd" clip-rule="evenodd" d="M11.2689 10.9897L-1.11267 1.56933L-0.818751 1.19269L11.2689 10.9897Z" fill="#E4EDFF"/>
<path fill-rule="evenodd" clip-rule="evenodd" d="M11.2688 10.9898L-0.877808 1.26844L-0.575088 0.899721L11.2688 10.9898Z" fill="#E3ECFF"/>
<path fill-rule="evenodd" clip-rule="evenodd" d="M11.2686 10.9885L-0.635132 0.972339L-0.323612 0.610659L11.2686 10.9885Z" fill="#E2EBFF"/>
<path fill-rule="evenodd" clip-rule="evenodd" d="M11.2686 10.9888L-0.386108 0.683169L-0.0657884 0.329409L11.2686 10.9888Z" fill="#E1EBFF"/>
<path fill-rule="evenodd" clip-rule="evenodd" d="M11.2694 10.99L-0.129272 0.401811L0.199847 0.0559711L11.2694 10.99Z" fill="#E0EAFF"/>
<path fill-rule="evenodd" clip-rule="evenodd" d="M11.2694 10.9927L0.133911 0.128266L0.471831 -0.209654L11.2694 10.9927Z" fill="#DFE9FF"/>
<path fill-rule="evenodd" clip-rule="evenodd" d="M11.2694 10.9924L0.404907 -0.143133L0.749867 -0.471373L11.2694 10.9924Z" fill="#DEE9FF"/>
<path fill-rule="evenodd" clip-rule="evenodd" d="M11.2685 10.9898L0.680298 -0.408865L1.03406 -0.729185L11.2685 10.9898Z" fill="#DDE8FF"/>
<path fill-rule="evenodd" clip-rule="evenodd" d="M11.2692 10.991L0.963501 -0.663759L1.32518 -0.975279L11.2692 10.991Z" fill="#DCE7FF"/>
<path fill-rule="evenodd" clip-rule="evenodd" d="M11.2691 10.9927L1.25293 -0.911067L1.62165 -1.21379L11.2691 10.9927Z" fill="#DBE7FF"/>
<path fill-rule="evenodd" clip-rule="evenodd" d="M11.2693 10.9878L1.54797 -1.1588L1.92461 -1.45184L11.2693 10.9878Z" fill="#DAE6FF"/>
<path fill-rule="evenodd" clip-rule="evenodd" d="M11.2696 10.9913L1.84924 -1.39026L2.23292 -1.6745L11.2696 10.9913Z" fill="#D9E5FF"/>
<path fill-rule="evenodd" clip-rule="evenodd" d="M11.2697 10.99L2.15637 -1.61869L2.54621 -1.89325L11.2697 10.99Z" fill="#D8E5FF"/>
<path fill-rule="evenodd" clip-rule="evenodd" d="M11.2697 10.9932L2.4679 -1.8354L2.86478 -2.10028L11.2697 10.9932Z" fill="#D7E4FF"/>
<path fill-rule="evenodd" clip-rule="evenodd" d="M11.2689 10.9886L2.78479 -2.05211L3.18871 -2.30731L11.2689 10.9886Z" fill="#D6E3FF"/>
<path fill-rule="evenodd" clip-rule="evenodd" d="M11.2692 10.9878L3.10803 -2.2571L3.51723 -2.50262L11.2692 10.9878Z" fill="#D5E3FF"/>
<path fill-rule="evenodd" clip-rule="evenodd" d="M11.2689 10.9899L3.43518 -2.45126L3.85054 -2.68622L11.2689 10.9899Z" fill="#D4E2FF"/>
<path fill-rule="evenodd" clip-rule="evenodd" d="M11.2688 10.9888L3.7677 -2.64062L4.18834 -2.8659L11.2688 10.9888Z" fill="#D3E1FF"/>
<path fill-rule="evenodd" clip-rule="evenodd" d="M11.2701 10.9859L4.1051 -2.82394L4.5319 -3.03778L11.2701 10.9859Z" fill="#D2E0FF"/>
<path fill-rule="evenodd" clip-rule="evenodd" d="M11.2699 10.9907L4.44641 -2.99075L4.87761 -3.19403L11.2699 10.9907Z" fill="#D1E0FF"/>
<path fill-rule="evenodd" clip-rule="evenodd" d="M11.2697 10.9915L4.79114 -3.15277L5.22762 -3.34637L11.2697 10.9915Z" fill="#D0DFFF"/>
<path fill-rule="evenodd" clip-rule="evenodd" d="M11.2692 10.9873L5.13916 -3.31177L5.58092 -3.49481L11.2692 10.9873Z" fill="#CFDEFF"/>
<path fill-rule="evenodd" clip-rule="evenodd" d="M11.2689 10.9892L5.4917 -3.45602L5.93786 -3.62762L11.2689 10.9892Z" fill="#CEDEFF"/>
<path fill-rule="evenodd" clip-rule="evenodd" d="M11.2689 10.9909L5.84814 -3.59158L6.29782 -3.75262L11.2689 10.9909Z" fill="#CDDDFF"/>
<path fill-rule="evenodd" clip-rule="evenodd" d="M11.2689 10.9868L6.20801 -3.725L6.66121 -3.87372L11.2689 10.9868Z" fill="#CCDCFF"/>
<path fill-rule="evenodd" clip-rule="evenodd" d="M11.2691 10.9866L6.5708 -3.84493L7.02752 -3.98309L11.2691 10.9866Z" fill="#CBDCFF"/>
<path fill-rule="evenodd" clip-rule="evenodd" d="M11.2687 10.9923L6.93555 -3.95012L7.39579 -4.07684L11.2687 10.9923Z" fill="#CADBFF"/>
<path fill-rule="evenodd" clip-rule="evenodd" d="M11.2695 10.9892L7.3042 -4.05443L7.76708 -4.17059L11.2695 10.9892Z" fill="#C9DAFF"/>
<path fill-rule="evenodd" clip-rule="evenodd" d="M11.2691 10.9881L7.67432 -4.14878L8.13984 -4.25262L11.2691 10.9881Z" fill="#C8DAFF"/>
<path fill-rule="evenodd" clip-rule="evenodd" d="M11.2695 10.986L8.04785 -4.23444L8.51513 -4.32684L11.2695 10.986Z" fill="#C7D9FF"/>
<path fill-rule="evenodd" clip-rule="evenodd" d="M11.27 10.9869L8.42236 -4.3075L8.89228 -4.38934L11.27 10.9869Z" fill="#C6D8FF"/>
<path fill-rule="evenodd" clip-rule="evenodd" d="M11.2688 10.9898L8.79688 -4.36972L9.26944 -4.44012L11.2688 10.9898Z" fill="#C5D8FF"/>
<path fill-rule="evenodd" clip-rule="evenodd" d="M11.2693 10.9908L9.17578 -4.42501L9.64922 -4.48309L11.2693 10.9908Z" fill="#C4D7FF"/>
<path fill-rule="evenodd" clip-rule="evenodd" d="M11.2683 10.987L9.55322 -4.47551L10.0284 -4.52215L11.2683 10.987Z" fill="#C3D6FF"/>
<path fill-rule="evenodd" clip-rule="evenodd" d="M11.269 10.9899L9.93408 -4.51039L10.4102 -4.54559L11.269 10.9899Z" fill="#C2D6FF"/>
<path fill-rule="evenodd" clip-rule="evenodd" d="M11.2689 10.9862L10.3149 -4.54224L10.7919 -4.56512L11.2689 10.9862Z" fill="#C1D5FF"/>
<path fill-rule="evenodd" clip-rule="evenodd" d="M11.2692 10.9894L10.6963 -4.55759L11.1732 -4.56903L11.2692 10.9894Z" fill="#C0D4FF"/>
<path fill-rule="evenodd" clip-rule="evenodd" d="M11.2696 10.9915L11.0786 -4.56512H11.5556L11.2696 10.9915Z" fill="#BFD4FF"/>
<path fill-rule="evenodd" clip-rule="evenodd" d="M11.269 10.9915L11.46 -4.56512L11.937 -4.5528L11.269 10.9915Z" fill="#BED3FF"/>
<path fill-rule="evenodd" clip-rule="evenodd" d="M11.27 10.9936L11.8429 -4.5534L12.319 -4.52964L11.27 10.9936Z" fill="#BDD2FF"/>
<path fill-rule="evenodd" clip-rule="evenodd" d="M11.27 10.9909L12.2239 -4.53754L12.7 -4.50234L11.27 10.9909Z" fill="#BCD2FF"/>
<path fill-rule="evenodd" clip-rule="evenodd" d="M11.27 10.9899L12.605 -4.51044L13.0802 -4.4638L11.27 10.9899Z" fill="#BBD1FF"/>
<path fill-rule="evenodd" clip-rule="evenodd" d="M11.27 10.9872L12.9843 -4.47528L13.4586 -4.4172L11.27 10.9872Z" fill="#BAD0FF"/>
<path fill-rule="evenodd" clip-rule="evenodd" d="M11.27 10.9913L13.3635 -4.4245L13.8361 -4.35498L11.27 10.9913Z" fill="#B9D0FF"/>
<path fill-rule="evenodd" clip-rule="evenodd" d="M11.27 10.9897L13.7411 -4.36981L14.2119 -4.28885L11.27 10.9897Z" fill="#B8CFFF"/>
<path fill-rule="evenodd" clip-rule="evenodd" d="M11.27 10.9871L14.1177 -4.30731L14.5859 -4.21491L11.27 10.9871Z" fill="#B7CEFF"/>
<path fill-rule="evenodd" clip-rule="evenodd" d="M11.27 10.9913L14.4917 -4.22919L14.9581 -4.12447L11.27 10.9913Z" fill="#B6CDFF"/>
<path fill-rule="evenodd" clip-rule="evenodd" d="M11.27 10.9936L14.8648 -4.14325L15.3277 -4.02709L11.27 10.9936Z" fill="#B5CDFF"/>
<path fill-rule="evenodd" clip-rule="evenodd" d="M11.269 10.9902L15.2343 -4.0534L15.6937 -3.92668L11.269 10.9902Z" fill="#B4CCFF"/>
<path fill-rule="evenodd" clip-rule="evenodd" d="M11.27 10.9906L15.6031 -3.95184L16.0599 -3.8128L11.27 10.9906Z" fill="#B3CBFF"/>
<path fill-rule="evenodd" clip-rule="evenodd" d="M11.27 10.9891L15.9683 -3.84247L16.4215 -3.69199L11.27 10.9891Z" fill="#B2CBFF"/>
<path fill-rule="evenodd" clip-rule="evenodd" d="M11.27 10.9905L16.3309 -3.72137L16.7806 -3.56033L11.27 10.9905Z" fill="#B1CAFF"/>
<path fill-rule="evenodd" clip-rule="evenodd" d="M11.27 10.99L16.6908 -3.59247L17.1361 -3.42087L11.27 10.99Z" fill="#B0C9FF"/>
<path fill-rule="evenodd" clip-rule="evenodd" d="M11.27 10.9934L17.0463 -3.45178L17.4881 -3.26962L11.27 10.9934Z" fill="#AFC9FF"/>
<path fill-rule="evenodd" clip-rule="evenodd" d="M11.27 10.9918L17.3992 -3.30731L17.8357 -3.11371L11.27 10.9918Z" fill="#AEC8FF"/>
<path fill-rule="evenodd" clip-rule="evenodd" d="M11.27 10.9893L17.7486 -3.15497L18.1798 -2.95081L11.27 10.9893Z" fill="#ADC7FF"/>
<path fill-rule="evenodd" clip-rule="evenodd" d="M11.27 10.9866L18.0935 -2.99481L18.5203 -2.78009L11.27 10.9866Z" fill="#ACC7FF"/>
<path fill-rule="evenodd" clip-rule="evenodd" d="M11.27 10.9869L18.435 -2.82294L18.8556 -2.59766L11.27 10.9869Z" fill="#ABC6FF"/>
<path fill-rule="evenodd" clip-rule="evenodd" d="M11.27 10.9901L18.7711 -2.63931L19.1874 -2.40435L11.27 10.9901Z" fill="#AAC5FF"/>
<path fill-rule="evenodd" clip-rule="evenodd" d="M11.27 10.9932L19.1038 -2.44794L19.513 -2.20242L11.27 10.9932Z" fill="#A9C5FF"/>
<path fill-rule="evenodd" clip-rule="evenodd" d="M11.27 10.9923L19.4311 -2.25262L19.8342 -1.99742L11.27 10.9923Z" fill="#A8C4FF"/>
<path fill-rule="evenodd" clip-rule="evenodd" d="M11.27 10.9912L19.7541 -2.0495L20.151 -1.78374L11.27 10.9912Z" fill="#A7C3FF"/>
<path fill-rule="evenodd" clip-rule="evenodd" d="M11.269 10.9901L20.0708 -1.83856L20.4606 -1.564L11.269 10.9901Z" fill="#A6C3FF"/>
<path fill-rule="evenodd" clip-rule="evenodd" d="M11.27 10.9886L20.3833 -1.62002L20.767 -1.33578L11.27 10.9886Z" fill="#A5C2FF"/>
<path fill-rule="evenodd" clip-rule="evenodd" d="M11.27 10.9884L20.6904 -1.39325L21.0662 -1.09933L11.27 10.9884Z" fill="#A4C1FF"/>
<path fill-rule="evenodd" clip-rule="evenodd" d="M11.27 10.9917L20.9914 -1.15497L21.3601 -0.852246L11.27 10.9917Z" fill="#A3C1FF"/>
<path fill-rule="evenodd" clip-rule="evenodd" d="M11.269 10.9871L21.2852 -0.916685L21.6469 -0.605165L11.269 10.9871Z" fill="#A2C0FF"/>
<path fill-rule="evenodd" clip-rule="evenodd" d="M11.27 10.988L21.5757 -0.666685L21.9295 -0.346365L11.27 10.988Z" fill="#A1BFFF"/>
<path fill-rule="evenodd" clip-rule="evenodd" d="M11.27 10.9936L21.8582 -0.405006L22.204 -0.0758865L11.27 10.9936Z" fill="#A0BFFF"/>
<path fill-rule="evenodd" clip-rule="evenodd" d="M11.27 10.9923L22.1345 -0.143248L22.4724 0.194672L11.27 10.9923Z" fill="#9FBEFF"/>
<path fill-rule="evenodd" clip-rule="evenodd" d="M11.27 10.9869L22.4047 0.122377L22.7338 0.467337L11.27 10.9869Z" fill="#9EBDFF"/>
<path fill-rule="evenodd" clip-rule="evenodd" d="M11.27 10.9879L22.6687 0.399721L22.989 0.753481L11.27 10.9879Z" fill="#9DBDFF"/>
<path fill-rule="evenodd" clip-rule="evenodd" d="M11.27 10.9867L22.9247 0.680971L23.2363 1.04265L11.27 10.9867Z" fill="#9CBCFF"/>
<path fill-rule="evenodd" clip-rule="evenodd" d="M11.269 10.9901L23.1728 0.97394L23.4755 1.34266L11.269 10.9901Z" fill="#9BBBFF"/>
<path fill-rule="evenodd" clip-rule="evenodd" d="M11.27 10.9922L23.4167 1.27081L23.7097 1.64745L11.27 10.9922Z" fill="#9ABAFF"/>
<path fill-rule="evenodd" clip-rule="evenodd" d="M11.27 10.9881L23.6516 1.56769L23.9359 1.95137L11.27 10.9881Z" fill="#99BAFF"/>
<path fill-rule="evenodd" clip-rule="evenodd" d="M11.269 10.9896L23.8777 1.87628L24.1522 2.26612L11.269 10.9896Z" fill="#98B9FF"/>
<path fill-rule="evenodd" clip-rule="evenodd" d="M11.27 10.9866L24.0987 2.18488L24.3635 2.58176L11.27 10.9866Z" fill="#97B8FF"/>
<path fill-rule="evenodd" clip-rule="evenodd" d="M11.27 10.9892L24.3107 2.50512L24.5659 2.90904L11.27 10.9892Z" fill="#96B8FF"/>
<path fill-rule="evenodd" clip-rule="evenodd" d="M11.27 10.9905L24.5149 2.82941L24.7604 3.23861L11.27 10.9905Z" fill="#95B7FF"/>
<path fill-rule="evenodd" clip-rule="evenodd" d="M11.27 10.9913L24.7111 3.15753L24.9461 3.57289L11.27 10.9913Z" fill="#94B6FF"/>
<path fill-rule="evenodd" clip-rule="evenodd" d="M11.269 10.9907L24.8985 3.48956L25.1229 3.9102L11.269 10.9907Z" fill="#93B6FF"/>
<path fill-rule="evenodd" clip-rule="evenodd" d="M11.27 10.9905L25.079 3.8255L25.2937 4.2523L11.27 10.9905Z" fill="#92B5FF"/>
<path fill-rule="evenodd" clip-rule="evenodd" d="M11.27 10.9889L25.2515 4.16534L25.4547 4.59654L11.27 10.9889Z" fill="#91B4FF"/>
<path fill-rule="evenodd" clip-rule="evenodd" d="M11.27 10.9916L25.4143 4.513L25.6079 4.94948L11.27 10.9916Z" fill="#90B4FF"/>
<path fill-rule="evenodd" clip-rule="evenodd" d="M11.27 10.9907L25.5691 4.86066L25.7513 5.30242L11.27 10.9907Z" fill="#8FB3FF"/>
<path fill-rule="evenodd" clip-rule="evenodd" d="M11.27 10.9893L25.7152 5.21214L25.8868 5.6583L11.27 10.9893Z" fill="#8EB2FF"/>
<path fill-rule="evenodd" clip-rule="evenodd" d="M11.27 10.9885L25.8525 5.56769L26.0135 6.01737L11.27 10.9885Z" fill="#8DB2FF"/>
<path fill-rule="evenodd" clip-rule="evenodd" d="M11.27 10.9918L25.981 5.93097L26.1306 6.38417L11.27 10.9918Z" fill="#8CB1FF"/>
<path fill-rule="evenodd" clip-rule="evenodd" d="M11.27 10.9888L26.1007 6.29051L26.2397 6.74723L11.27 10.9888Z" fill="#8BB0FF"/>
<path fill-rule="evenodd" clip-rule="evenodd" d="M11.27 10.9867L26.2115 6.65363L26.3391 7.11387L11.27 10.9867Z" fill="#8AB0FF"/>
<path fill-rule="evenodd" clip-rule="evenodd" d="M11.27 10.9939L26.3136 7.02863L26.4298 7.49151L11.27 10.9939Z" fill="#89AFFF"/>
<path fill-rule="evenodd" clip-rule="evenodd" d="M11.27 10.9867L26.4069 7.39191L26.5107 7.85743L11.27 10.9867Z" fill="#88AEFF"/>
<path fill-rule="evenodd" clip-rule="evenodd" d="M11.27 10.9925L26.4896 7.77081L26.5829 8.23809L11.27 10.9925Z" fill="#87AEFF"/>
<path fill-rule="evenodd" clip-rule="evenodd" d="M11.27 10.9896L26.5644 8.14191L26.6463 8.61183L11.27 10.9896Z" fill="#86ADFF"/>
<path fill-rule="evenodd" clip-rule="evenodd" d="M11.27 10.9927L26.6295 8.52081L26.6999 8.99337L11.27 10.9927Z" fill="#85ACFF"/>
<path fill-rule="evenodd" clip-rule="evenodd" d="M11.27 10.9893L26.6859 8.89581L26.7439 9.36925L11.27 10.9893Z" fill="#84ACFF"/>
<path fill-rule="evenodd" clip-rule="evenodd" d="M11.27 10.9896L26.7325 9.2745L26.7791 9.7497L11.27 10.9896Z" fill="#83ABFF"/>
<path fill-rule="evenodd" clip-rule="evenodd" d="M11.269 10.9886L26.7694 9.65363L26.8046 10.1297L11.269 10.9886Z" fill="#82AAFF"/>
<path fill-rule="evenodd" clip-rule="evenodd" d="M11.27 10.9904L26.7985 10.0364L26.8214 10.5134L11.27 10.9904Z" fill="#81AAFF"/>
<path fill-rule="evenodd" clip-rule="evenodd" d="M11.27 10.9922L26.817 10.4193L26.8284 10.8963L11.27 10.9922Z" fill="#80A9FF"/>
<path fill-rule="evenodd" clip-rule="evenodd" d="M11.27 10.9891L26.8258 10.7982V11.2751L11.27 10.9891Z" fill="#7FA8FF"/>
<path fill-rule="evenodd" clip-rule="evenodd" d="M11.27 10.9896L26.8258 11.1805L26.8143 11.6575L11.27 10.9896Z" fill="#7EA7FF"/>
<path fill-rule="evenodd" clip-rule="evenodd" d="M11.27 10.9896L26.817 11.5624L26.7932 12.0385L11.27 10.9896Z" fill="#7DA7FF"/>
<path fill-rule="evenodd" clip-rule="evenodd" d="M11.27 10.9896L26.7985 11.9435L26.7633 12.4196L11.27 10.9896Z" fill="#7CA6FF"/>
<path fill-rule="evenodd" clip-rule="evenodd" d="M11.27 10.9896L26.7703 12.3245L26.7237 12.7997L11.27 10.9896Z" fill="#7BA5FF"/>
<path fill-rule="evenodd" clip-rule="evenodd" d="M11.27 10.9896L26.7325 12.7038L26.6744 13.1781L11.27 10.9896Z" fill="#7AA5FF"/>
<path fill-rule="evenodd" clip-rule="evenodd" d="M11.27 10.9896L26.6859 13.0831L26.6155 13.5556L11.27 10.9896Z" fill="#79A4FF"/>
<path fill-rule="evenodd" clip-rule="evenodd" d="M11.27 10.9896L26.6295 13.4606L26.5486 13.9314L11.27 10.9896Z" fill="#78A3FF"/>
<path fill-rule="evenodd" clip-rule="evenodd" d="M11.27 10.9896L26.5644 13.8372L26.4711 14.3054L11.27 10.9896Z" fill="#77A3FF"/>
<path fill-rule="evenodd" clip-rule="evenodd" d="M11.27 10.9896L26.4896 14.2112L26.3858 14.6776L11.27 10.9896Z" fill="#76A2FF"/>
<path fill-rule="evenodd" clip-rule="evenodd" d="M11.27 10.9896L26.4069 14.5844L26.2907 15.0472L11.27 10.9896Z" fill="#75A1FF"/>
<path fill-rule="evenodd" clip-rule="evenodd" d="M11.27 10.9896L26.3136 14.9548L26.1869 15.4142L11.27 10.9896Z" fill="#74A1FF"/>
<path fill-rule="evenodd" clip-rule="evenodd" d="M11.27 10.9896L26.2115 15.3227L26.0734 15.7794L11.27 10.9896Z" fill="#73A0FF"/>
<path fill-rule="evenodd" clip-rule="evenodd" d="M11.27 10.9896L26.1007 15.6879L25.9511 16.1411L11.27 10.9896Z" fill="#729FFF"/>
<path fill-rule="evenodd" clip-rule="evenodd" d="M11.27 10.9896L25.981 16.0504L25.8208 16.5001L11.27 10.9896Z" fill="#719FFF"/>
<path fill-rule="evenodd" clip-rule="evenodd" d="M11.27 10.9896L25.8525 16.4104L25.6809 16.8556L11.27 10.9896Z" fill="#709EFF"/>
<path fill-rule="evenodd" clip-rule="evenodd" d="M11.27 10.9896L25.7152 16.7659L25.5322 17.2076L11.27 10.9896Z" fill="#6F9DFF"/>
<path fill-rule="evenodd" clip-rule="evenodd" d="M11.27 10.9896L25.5691 17.1188L25.3755 17.5552L11.27 10.9896Z" fill="#6E9DFF"/>
<path fill-rule="evenodd" clip-rule="evenodd" d="M11.27 10.9896L25.4143 17.4681L25.2101 17.8993L11.27 10.9896Z" fill="#6D9CFF"/>
<path fill-rule="evenodd" clip-rule="evenodd" d="M11.27 10.9896L25.2515 17.8131L25.0367 18.2399L11.27 10.9896Z" fill="#6C9BFF"/>
<path fill-rule="evenodd" clip-rule="evenodd" d="M11.27 10.9896L25.079 18.1545L24.8546 18.5752L11.27 10.9896Z" fill="#6B9BFF"/>
<path fill-rule="evenodd" clip-rule="evenodd" d="M11.27 10.9896L24.8995 18.4907L24.6645 18.9069L11.27 10.9896Z" fill="#6A9AFF"/>
<path fill-rule="evenodd" clip-rule="evenodd" d="M11.27 10.9896L24.7111 18.8233L24.4656 19.2325L11.27 10.9896Z" fill="#6999FF"/>
<path fill-rule="evenodd" clip-rule="evenodd" d="M11.27 10.9896L24.5149 19.1507L24.2597 19.5537L11.27 10.9896Z" fill="#6899FF"/>
<path fill-rule="evenodd" clip-rule="evenodd" d="M11.27 10.9896L24.3107 19.4736L24.045 19.8705L11.27 10.9896Z" fill="#6798FF"/>
<path fill-rule="evenodd" clip-rule="evenodd" d="M11.27 10.9896L24.0987 19.7913L23.8241 20.1812L11.27 10.9896Z" fill="#6697FF"/>
<path fill-rule="evenodd" clip-rule="evenodd" d="M11.27 10.9896L23.8787 20.1028L23.5944 20.4865L11.27 10.9896Z" fill="#6597FF"/>
<path fill-rule="evenodd" clip-rule="evenodd" d="M11.27 10.9896L23.6516 20.41L23.3577 20.7857L11.27 10.9896Z" fill="#6496FF"/>
<path fill-rule="evenodd" clip-rule="evenodd" d="M11.27 10.9896L23.4167 20.7109L23.1139 21.0796L11.27 10.9896Z" fill="#6395FF"/>
<path fill-rule="evenodd" clip-rule="evenodd" d="M11.27 10.9896L23.1738 21.0057L22.8623 21.3674L11.27 10.9896Z" fill="#6294FF"/>
<path fill-rule="evenodd" clip-rule="evenodd" d="M11.27 10.9896L22.9247 21.2952L22.6044 21.649L11.27 10.9896Z" fill="#6194FF"/>
<path fill-rule="evenodd" clip-rule="evenodd" d="M11.27 10.9896L22.6687 21.5777L22.3395 21.9236L11.27 10.9896Z" fill="#6093FF"/>
<path fill-rule="evenodd" clip-rule="evenodd" d="M11.27 10.9896L22.4047 21.854L22.0676 22.192L11.27 10.9896Z" fill="#5F92FF"/>
<path fill-rule="evenodd" clip-rule="evenodd" d="M11.27 10.9896L22.1345 22.1242L21.7895 22.4533L11.27 10.9896Z" fill="#5E92FF"/>
<path fill-rule="evenodd" clip-rule="evenodd" d="M11.27 10.9896L21.8582 22.3882L21.5044 22.7085L11.27 10.9896Z" fill="#5D91FF"/>
<path fill-rule="evenodd" clip-rule="evenodd" d="M11.27 10.9896L21.5757 22.6443L21.214 22.9558L11.27 10.9896Z" fill="#5C90FF"/>
<path fill-rule="evenodd" clip-rule="evenodd" d="M11.27 10.9896L21.2862 22.8933L20.9175 23.196L11.27 10.9896Z" fill="#5B90FF"/>
<path fill-rule="evenodd" clip-rule="evenodd" d="M11.27 10.9896L20.9914 23.1362L20.6147 23.4292L11.27 10.9896Z" fill="#5A8FFF"/>
<path fill-rule="evenodd" clip-rule="evenodd" d="M11.27 10.9896L20.6904 23.3712L20.3067 23.6554L11.27 10.9896Z" fill="#598EFF"/>
<path fill-rule="evenodd" clip-rule="evenodd" d="M11.27 10.9896L20.3833 23.5982L19.9935 23.8728L11.27 10.9896Z" fill="#588EFF"/>
<path fill-rule="evenodd" clip-rule="evenodd" d="M11.27 10.9896L20.0718 23.8182L19.674 24.0831L11.27 10.9896Z" fill="#578DFF"/>
<path fill-rule="evenodd" clip-rule="evenodd" d="M11.27 10.9896L19.7541 24.0303L19.3502 24.2855L11.27 10.9896Z" fill="#568CFF"/>
<path fill-rule="evenodd" clip-rule="evenodd" d="M11.27 10.9896L19.4311 24.2344L19.0219 24.48L11.27 10.9896Z" fill="#558CFF"/>
<path fill-rule="evenodd" clip-rule="evenodd" d="M11.27 10.9896L19.1038 24.4307L18.6884 24.6656L11.27 10.9896Z" fill="#548BFF"/>
<path fill-rule="evenodd" clip-rule="evenodd" d="M11.27 10.9896L18.7711 24.619L18.3505 24.8434L11.27 10.9896Z" fill="#538AFF"/>
<path fill-rule="evenodd" clip-rule="evenodd" d="M11.27 10.9896L18.435 24.7985L18.0082 25.0132L11.27 10.9896Z" fill="#528AFF"/>
<path fill-rule="evenodd" clip-rule="evenodd" d="M11.27 10.9896L18.0935 24.971L17.6623 25.1743L11.27 10.9896Z" fill="#5189FF"/>
<path fill-rule="evenodd" clip-rule="evenodd" d="M11.27 10.9896L17.7486 25.1338L17.3121 25.3274L11.27 10.9896Z" fill="#5088FF"/>
<path fill-rule="evenodd" clip-rule="evenodd" d="M11.27 10.9896L17.3992 25.2887L16.9583 25.4708L11.27 10.9896Z" fill="#4F88FF"/>
<path fill-rule="evenodd" clip-rule="evenodd" d="M11.27 10.9896L17.0463 25.4348L16.6011 25.6064L11.27 10.9896Z" fill="#4E87FF"/>
<path fill-rule="evenodd" clip-rule="evenodd" d="M11.27 10.9896L16.6908 25.572L16.2411 25.7331L11.27 10.9896Z" fill="#4D86FF"/>
<path fill-rule="evenodd" clip-rule="evenodd" d="M11.27 10.9896L16.3309 25.7005L15.8777 25.8501L11.27 10.9896Z" fill="#4C86FF"/>
<path fill-rule="evenodd" clip-rule="evenodd" d="M11.27 10.9896L15.9683 25.8202L15.5116 25.9592L11.27 10.9896Z" fill="#4B85FF"/>
<path fill-rule="evenodd" clip-rule="evenodd" d="M11.27 10.9896L15.6031 25.9311L15.1429 26.0587L11.27 10.9896Z" fill="#4A84FF"/>
<path fill-rule="evenodd" clip-rule="evenodd" d="M11.27 10.9896L15.2353 26.0332L14.7715 26.1493L11.27 10.9896Z" fill="#4984FF"/>
<path fill-rule="evenodd" clip-rule="evenodd" d="M11.27 10.9896L14.8648 26.1264L14.3993 26.2303L11.27 10.9896Z" fill="#4883FF"/>
<path fill-rule="evenodd" clip-rule="evenodd" d="M11.27 10.9896L14.4917 26.2092L14.0235 26.3024L11.27 10.9896Z" fill="#4782FF"/>
<path fill-rule="evenodd" clip-rule="evenodd" d="M11.27 10.9896L14.1177 26.284L13.6478 26.3658L11.27 10.9896Z" fill="#4681FF"/>
<path fill-rule="evenodd" clip-rule="evenodd" d="M11.27 10.9896L13.7411 26.3491L13.2694 26.4195L11.27 10.9896Z" fill="#4581FF"/>
<path fill-rule="evenodd" clip-rule="evenodd" d="M11.27 10.9896L13.3635 26.4054L12.8901 26.4635L11.27 10.9896Z" fill="#4480FF"/>
<path fill-rule="evenodd" clip-rule="evenodd" d="M11.27 10.9896L12.9843 26.452L12.5099 26.4987L11.27 10.9896Z" fill="#437FFF"/>
<path fill-rule="evenodd" clip-rule="evenodd" d="M11.27 10.9896L12.605 26.4899L12.1289 26.5251L11.27 10.9896Z" fill="#427FFF"/>
<path fill-rule="evenodd" clip-rule="evenodd" d="M11.27 10.9896L12.2239 26.518L11.747 26.5409L11.27 10.9896Z" fill="#417EFF"/>
<path fill-rule="evenodd" clip-rule="evenodd" d="M11.27 10.9896L11.8429 26.5365L11.3651 26.548L11.27 10.9896Z" fill="#407DFF"/>
<path fill-rule="evenodd" clip-rule="evenodd" d="M11.2683 10.9896L11.4593 26.5453H10.9814L11.2683 10.9896Z" fill="#3F7DFF"/>
<path fill-rule="evenodd" clip-rule="evenodd" d="M11.269 10.9896L11.078 26.5453L10.6011 26.5339L11.269 10.9896Z" fill="#3E7CFF"/>
<path fill-rule="evenodd" clip-rule="evenodd" d="M11.2686 10.9896L10.6957 26.5365L10.2188 26.5128L11.2686 10.9896Z" fill="#3D7BFF"/>
<path fill-rule="evenodd" clip-rule="evenodd" d="M11.2689 10.9896L10.3149 26.518L9.83887 26.4828L11.2689 10.9896Z" fill="#3C7BFF"/>
<path fill-rule="evenodd" clip-rule="evenodd" d="M11.2691 10.9896L9.93418 26.4899L9.45898 26.4432L11.2691 10.9896Z" fill="#3B7AFF"/>
<path fill-rule="evenodd" clip-rule="evenodd" d="M11.2691 10.9896L9.55401 26.452L9.08057 26.394L11.2691 10.9896Z" fill="#3A79FF"/>
<path fill-rule="evenodd" clip-rule="evenodd" d="M11.2692 10.9896L9.17568 26.4054L8.70312 26.335L11.2692 10.9896Z" fill="#3979FF"/>
<path fill-rule="evenodd" clip-rule="evenodd" d="M11.269 10.9896L8.79707 26.3491L8.32715 26.2681L11.269 10.9896Z" fill="#3878FF"/>
<path fill-rule="evenodd" clip-rule="evenodd" d="M11.268 10.9896L8.42031 26.284L7.95215 26.1907L11.268 10.9896Z" fill="#3777FF"/>
<path fill-rule="evenodd" clip-rule="evenodd" d="M11.2686 10.9896L8.04697 26.2092L7.58057 26.1053L11.2686 10.9896Z" fill="#3677FF"/>
<path fill-rule="evenodd" clip-rule="evenodd" d="M11.2691 10.9896L7.67431 26.1264L7.21143 26.0103L11.2691 10.9896Z" fill="#3576FF"/>
<path fill-rule="evenodd" clip-rule="evenodd" d="M11.2693 10.9896L7.30399 26.0332L6.84375 25.9064L11.2693 10.9896Z" fill="#3475FF"/>
<path fill-rule="evenodd" clip-rule="evenodd" d="M11.2688 10.9896L6.93572 25.9311L6.479 25.7929L11.2688 10.9896Z" fill="#3375FF"/>
<path fill-rule="evenodd" clip-rule="evenodd" d="M11.2687 10.9896L6.57039 25.8202L6.11719 25.6706L11.2687 10.9896Z" fill="#3274FF"/>
<path fill-rule="evenodd" clip-rule="evenodd" d="M11.2698 10.9896L6.20896 25.7005L5.75928 25.5404L11.2698 10.9896Z" fill="#3173FF"/>
<path fill-rule="evenodd" clip-rule="evenodd" d="M11.2699 10.9896L5.84909 25.572L5.40381 25.4004L11.2699 10.9896Z" fill="#3073FF"/>
<path fill-rule="evenodd" clip-rule="evenodd" d="M11.2693 10.9896L5.49215 25.4348L5.05127 25.2517L11.2693 10.9896Z" fill="#2F72FF"/>
<path fill-rule="evenodd" clip-rule="evenodd" d="M11.2684 10.9896L5.13836 25.2887L4.70276 25.0951L11.2684 10.9896Z" fill="#2E71FF"/>
<path fill-rule="evenodd" clip-rule="evenodd" d="M11.2688 10.9896L4.79021 25.1338L4.35901 24.9296L11.2688 10.9896Z" fill="#2D71FF"/>
<path fill-rule="evenodd" clip-rule="evenodd" d="M11.269 10.9896L4.44548 24.971L4.01868 24.7563L11.269 10.9896Z" fill="#2C70FF"/>
<path fill-rule="evenodd" clip-rule="evenodd" d="M11.2693 10.9896L4.10436 24.7985L3.68372 24.5741L11.2693 10.9896Z" fill="#2B6FFF"/>
<path fill-rule="evenodd" clip-rule="evenodd" d="M11.2705 10.9896L3.76939 24.619L3.35315 24.384L11.2705 10.9896Z" fill="#2A6EFF"/>
<path fill-rule="evenodd" clip-rule="evenodd" d="M11.2695 10.9896L3.43569 24.4307L3.02649 24.1852L11.2695 10.9896Z" fill="#296EFF"/>
<path fill-rule="evenodd" clip-rule="evenodd" d="M11.2693 10.9896L3.10814 24.2344L2.70422 23.9792L11.2693 10.9896Z" fill="#286DFF"/>
<path fill-rule="evenodd" clip-rule="evenodd" d="M11.2688 10.9896L2.7847 24.0303L2.38782 23.7645L11.2688 10.9896Z" fill="#276CFF"/>
<path fill-rule="evenodd" clip-rule="evenodd" d="M11.2684 10.9896L2.46662 23.8182L2.07678 23.5436L11.2684 10.9896Z" fill="#266CFF"/>
<path fill-rule="evenodd" clip-rule="evenodd" d="M11.2695 10.9896L2.15626 23.5982L1.77258 23.314L11.2695 10.9896Z" fill="#256BFF"/>
<path fill-rule="evenodd" clip-rule="evenodd" d="M11.2698 10.9896L1.84942 23.3712L1.47278 23.0772L11.2698 10.9896Z" fill="#246AFF"/>
<path fill-rule="evenodd" clip-rule="evenodd" d="M11.2694 10.9896L1.54804 23.1362L1.17932 22.8335L11.2694 10.9896Z" fill="#236AFF"/>
<path fill-rule="evenodd" clip-rule="evenodd" d="M11.2696 10.9896L1.2534 22.8933L0.891724 22.5818L11.2696 10.9896Z" fill="#2269FF"/>
<path fill-rule="evenodd" clip-rule="evenodd" d="M11.2684 10.9896L0.962769 22.6443L0.609009 22.324L11.2684 10.9896Z" fill="#2168FF"/>
<path fill-rule="evenodd" clip-rule="evenodd" d="M11.2691 10.9896L0.680923 22.3882L0.335083 22.0591L11.2691 10.9896Z" fill="#2068FF"/>
<path fill-rule="evenodd" clip-rule="evenodd" d="M11.2694 10.9896L0.404937 22.1242L0.0670166 21.7872L11.2694 10.9896Z" fill="#1F67FF"/>
<path fill-rule="evenodd" clip-rule="evenodd" d="M11.2691 10.9896L0.133538 21.854L-0.194702 21.5091L11.2691 10.9896Z" fill="#1E66FF"/>
<path fill-rule="evenodd" clip-rule="evenodd" d="M11.2694 10.9896L-0.129265 21.5777L-0.449585 21.224L11.2694 10.9896Z" fill="#1D66FF"/>
<path fill-rule="evenodd" clip-rule="evenodd" d="M11.2696 10.9896L-0.385135 21.2952L-0.696655 20.9336L11.2696 10.9896Z" fill="#1C65FF"/>
<path fill-rule="evenodd" clip-rule="evenodd" d="M11.2686 10.9896L-0.635146 21.0057L-0.937866 20.637L11.2686 10.9896Z" fill="#1B64FF"/>
<path fill-rule="evenodd" clip-rule="evenodd" d="M11.2689 10.9896L-0.877736 20.7109L-1.17078 20.3343L11.2689 10.9896Z" fill="#1A64FF"/>
<path fill-rule="evenodd" clip-rule="evenodd" d="M11.2695 10.9896L-1.11212 20.41L-1.39636 20.0263L11.2695 10.9896Z" fill="#1963FF"/>
<path fill-rule="evenodd" clip-rule="evenodd" d="M11.2696 10.9896L-1.33909 20.1028L-1.61365 19.713L11.2696 10.9896Z" fill="#1862FF"/>
<path fill-rule="evenodd" clip-rule="evenodd" d="M11.2694 10.9896L-1.55922 19.7913L-1.8241 19.3936L11.2694 10.9896Z" fill="#1762FF"/>
<path fill-rule="evenodd" clip-rule="evenodd" d="M11.2692 10.9896L-1.77153 19.4736L-2.02673 19.0697L11.2692 10.9896Z" fill="#1661FF"/>
<path fill-rule="evenodd" clip-rule="evenodd" d="M11.2688 10.9896L-1.97604 19.1507L-2.22156 18.7415L11.2688 10.9896Z" fill="#1560FF"/>
<path fill-rule="evenodd" clip-rule="evenodd" d="M11.2695 10.9896L-2.17166 18.8233L-2.40662 18.408L11.2695 10.9896Z" fill="#1460FF"/>
<path fill-rule="evenodd" clip-rule="evenodd" d="M11.2689 10.9896L-2.36054 18.4907L-2.58582 18.07L11.2689 10.9896Z" fill="#135FFF"/>
<path fill-rule="evenodd" clip-rule="evenodd" d="M11.2699 10.9896L-2.53994 18.1545L-2.75378 17.7277L11.2699 10.9896Z" fill="#125EFF"/>
<path fill-rule="evenodd" clip-rule="evenodd" d="M11.2688 10.9896L-2.71261 17.8131L-2.91589 17.3819L11.2688 10.9896Z" fill="#115EFF"/>
<path fill-rule="evenodd" clip-rule="evenodd" d="M11.2686 10.9896L-2.87561 17.4681L-3.06921 17.0316L11.2686 10.9896Z" fill="#105DFF"/>
<path fill-rule="evenodd" clip-rule="evenodd" d="M11.2689 10.9896L-3.03022 17.1188L-3.21326 16.6779L11.2689 10.9896Z" fill="#0F5CFF"/>
<path fill-rule="evenodd" clip-rule="evenodd" d="M11.2683 10.9896L-3.17691 16.7659L-3.34851 16.3206L11.2683 10.9896Z" fill="#0E5BFF"/>
<path fill-rule="evenodd" clip-rule="evenodd" d="M11.269 10.9896L-3.31345 16.4104L-3.47449 15.9607L11.269 10.9896Z" fill="#0D5BFF"/>
<path fill-rule="evenodd" clip-rule="evenodd" d="M11.2689 10.9896L-3.44295 16.0504L-3.59167 15.5972L11.2689 10.9896Z" fill="#0C5AFF"/>
<path fill-rule="evenodd" clip-rule="evenodd" d="M11.2696 10.9896L-3.56191 15.6879L-3.70007 15.2312L11.2696 10.9896Z" fill="#0B59FF"/>
<path fill-rule="evenodd" clip-rule="evenodd" d="M11.2694 10.9896L-3.67296 15.3227L-3.79968 14.8624L11.2694 10.9896Z" fill="#0A59FF"/>
<path fill-rule="evenodd" clip-rule="evenodd" d="M11.2688 10.9896L-3.77483 14.9548L-3.89099 14.4911L11.2688 10.9896Z" fill="#0958FF"/>
<path fill-rule="evenodd" clip-rule="evenodd" d="M11.2687 10.9896L-3.86821 14.5844L-3.97205 14.1188L11.2687 10.9896Z" fill="#0857FF"/>
<path fill-rule="evenodd" clip-rule="evenodd" d="M11.27 10.9896L-3.95045 14.2112L-4.04285 13.7431L11.27 10.9896Z" fill="#0757FF"/>
<path fill-rule="evenodd" clip-rule="evenodd" d="M11.2689 10.9896L-4.02546 13.8372L-4.1073 13.3673L11.2689 10.9896Z" fill="#0656FF"/>
<path fill-rule="evenodd" clip-rule="evenodd" d="M11.2694 10.9896L-4.09012 13.4606L-4.16052 12.9889L11.2694 10.9896Z" fill="#0555FF"/>
<path fill-rule="evenodd" clip-rule="evenodd" d="M11.269 10.9896L-4.14688 13.0831L-4.20496 12.6096L11.269 10.9896Z" fill="#0455FF"/>
<path fill-rule="evenodd" clip-rule="evenodd" d="M11.2695 10.9896L-4.19298 12.7038L-4.23962 12.2295L11.2695 10.9896Z" fill="#0354FF"/>
<path fill-rule="evenodd" clip-rule="evenodd" d="M11.27 10.9896L-4.2303 12.3245L-4.2655 11.8484L11.27 10.9896Z" fill="#0253FF"/>
<path fill-rule="evenodd" clip-rule="evenodd" d="M11.2688 10.9896L-4.25971 11.9435L-4.28259 11.4665L11.2688 10.9896Z" fill="#0153FF"/>
<path fill-rule="evenodd" clip-rule="evenodd" d="M11.2695 10.9896L-4.2775 11.5624L-4.28894 11.0846L11.2695 10.9896Z" fill="#0052FF"/>
<path fill-rule="evenodd" clip-rule="evenodd" d="M11.2692 10.9891L-4.28748 11.1801V10.7982L11.2692 10.9891Z" fill="white"/>
</g>
</g>
<defs>
<clipPath id="clip0_2_45242">
<rect width="22" height="22" fill="white" transform="translate(0.272705)"/>
</clipPath>
</defs>
</svg>
