<svg width="17" height="17" viewBox="0 0 17 17" fill="none" xmlns="http://www.w3.org/2000/svg">
<path d="M10.7616 9.44397V12.244C10.7616 14.5773 9.82831 15.5106 7.49498 15.5106H4.69498C2.36165 15.5106 1.42831 14.5773 1.42831 12.244V9.44397C1.42831 7.11064 2.36165 6.17731 4.69498 6.17731H7.49498C9.82831 6.17731 10.7616 7.11064 10.7616 9.44397Z" stroke="#9583FF" stroke-width="1.5" stroke-linecap="round" stroke-linejoin="round"/>
<path d="M14.7616 5.44397V8.24397C14.7616 10.5773 13.8283 11.5106 11.495 11.5106H10.7616V9.44397C10.7616 7.11064 9.82831 6.17731 7.49498 6.17731H5.42831V5.44397C5.42831 3.11064 6.36165 2.17731 8.69498 2.17731H11.495C13.8283 2.17731 14.7616 3.11064 14.7616 5.44397Z" stroke="#9583FF" stroke-width="1.5" stroke-linecap="round" stroke-linejoin="round"/>
</svg>
