<svg width="164" height="29" viewBox="0 0 164 29" fill="none" xmlns="http://www.w3.org/2000/svg">
<path d="M24.6208 16.8948C24.1325 17.1932 23.5627 17.2475 23.1286 17.0033C22.586 16.6777 22.2604 15.9452 22.2604 14.9413V11.8754C22.2604 10.4103 21.6906 9.35215 20.7139 9.08083C19.0588 8.59246 17.8108 10.6273 17.3495 11.387L14.4193 16.0808V10.3018C14.3922 8.97231 13.9581 8.18549 13.1441 7.9413C12.6015 7.77851 11.7875 7.85991 11.0007 9.05371L4.46193 19.5266C3.59372 17.8715 3.13248 16.0266 3.13248 14.1545C3.13248 7.83278 8.20612 2.70487 14.4193 2.70487C20.6325 2.70487 25.7061 7.83278 25.7061 14.1545V14.1816V14.2087C25.7604 15.4297 25.3805 16.4064 24.6208 16.8948ZM28.2022 14.1545V14.1273V14.1002C28.1751 6.42192 21.9891 0.15448 14.4193 0.15448C6.8224 0.15448 0.636353 6.42192 0.636353 14.1545C0.636353 21.8599 6.8224 28.1545 14.4193 28.1545C17.9193 28.1545 21.2294 26.825 23.7798 24.4103C24.2953 23.9219 24.3224 23.1351 23.834 22.6196C23.3728 22.1041 22.586 22.077 22.0705 22.5382C22.0705 22.5382 22.0705 22.5382 22.0433 22.5653C19.9813 24.5188 17.2139 25.6312 14.365 25.6312C11.0278 25.6312 8.04333 24.1661 5.98131 21.8328L11.8689 12.3909V16.7591C11.8689 18.8483 12.6829 19.5266 13.3612 19.7165C14.0395 19.9064 15.0705 19.7708 16.1829 18.0072L19.4115 12.7708C19.5201 12.608 19.6015 12.4452 19.71 12.3366V14.9956C19.71 16.9491 20.4968 18.5227 21.8534 19.2824C23.0743 19.9878 24.6208 19.9064 25.896 19.1196C27.4697 18.0886 28.3108 16.2979 28.2022 14.1545ZM47.4115 9.37929C47.7371 9.56921 48.0356 10.0304 48.0356 10.4374C48.0356 11.0886 47.4929 11.6312 46.8689 11.6312C46.7061 11.6312 46.5705 11.577 46.4348 11.5498C45.7022 11.0072 44.7798 10.6545 43.803 10.6545C41.4968 10.6545 39.9232 12.5266 39.9232 14.8599C39.9232 17.1932 41.5239 19.0382 43.803 19.0382C44.9426 19.0382 45.9736 18.577 46.7332 17.8444C46.9232 17.7087 47.1674 17.6273 47.4115 17.6273C48.0356 17.6273 48.5239 18.1157 48.5239 18.7397C48.5239 19.1467 48.2798 19.4994 47.9813 19.6894C46.8689 20.639 45.3767 21.263 43.8301 21.263C40.303 21.263 37.427 18.3599 37.427 14.7785C37.427 11.1971 40.303 8.29401 43.8301 8.29401C45.1325 8.26688 46.3805 8.67386 47.4115 9.37929ZM53.8689 12.0925C56.2836 12.0925 58.2914 14.1274 58.2914 16.6506C58.2914 19.1467 56.2565 21.2901 53.8689 21.2901C51.3456 21.2901 49.2565 19.1739 49.2565 16.6506C49.2565 14.1274 51.3456 12.0925 53.8689 12.0925ZM53.8418 19.0382C54.8999 19.0382 55.7953 18.0343 55.7953 16.6777C55.7953 15.3211 54.8999 14.4529 53.8418 14.4529C52.7022 14.4529 51.7526 15.294 51.7526 16.6777C51.7526 18.0072 52.7022 19.0382 53.8418 19.0382ZM59.8108 19.8793V13.4762C59.8108 12.7708 60.3534 12.201 61.0588 12.201C61.7371 12.201 62.3069 12.7708 62.3069 13.4762V19.8793C62.3069 20.5847 61.7371 21.1545 61.0588 21.1545C60.3805 21.1545 59.8108 20.5576 59.8108 19.8793ZM59.6208 9.78626C59.6208 8.94518 60.272 8.29401 61.0588 8.29401C61.8728 8.29401 62.5239 8.97231 62.5239 9.78626C62.5239 10.6002 61.8728 11.2514 61.0588 11.2514C60.2449 11.2242 59.6208 10.5731 59.6208 9.78626ZM67.0821 16.4064V19.8793C67.0821 20.5847 66.5123 21.1545 65.834 21.1545C65.1557 21.1545 64.586 20.5847 64.586 19.8793V13.1777C64.586 12.6351 65.0201 12.201 65.5627 12.201C66.1053 12.201 66.5123 12.6622 66.5123 13.1777C67.5162 12.2281 68.4115 12.0925 69.2526 12.0925C71.7488 12.0925 72.8611 13.9646 72.8611 16.108V19.8793C72.8611 20.5847 72.2914 21.1545 71.6131 21.1545C70.9348 21.1545 70.365 20.5847 70.365 19.8793V16.4064C70.365 15.3211 70.2294 14.3987 68.6557 14.3987C67.5433 14.3987 67.0821 15.3211 67.0821 16.4064ZM80.9464 17.7359C80.648 17.7359 80.458 17.6002 80.2953 17.4103L77.3922 14.263V19.8793C77.3922 20.5847 76.8224 21.1545 76.1441 21.1545C75.4658 21.1545 74.896 20.5847 74.896 19.8793V8.75526C74.9774 8.56534 75.1674 8.42967 75.3573 8.42967C75.5743 8.42967 75.7643 8.6196 75.8999 8.75526L80.5394 13.9646C80.6751 14.1273 80.8379 14.2087 80.9464 14.2087C81.0278 14.2087 81.2177 14.1273 81.3534 13.9646L85.9929 8.75526C86.1286 8.6196 86.2914 8.42967 86.5356 8.42967C86.7526 8.42967 86.9425 8.56534 86.9968 8.75526V19.8793C86.9968 20.5847 86.4542 21.1545 85.7487 21.1545C85.0704 21.1545 84.5007 20.5847 84.5007 19.8793V14.263L81.5976 17.4103C81.3805 17.6002 81.1906 17.7359 80.9464 17.7359ZM92.9387 19.0382C94.0511 19.0382 95.0007 18.0343 95.0007 16.6777C95.0007 15.3211 94.0239 14.4258 92.9387 14.4258C91.8534 14.4258 90.958 15.3483 90.958 16.6777C90.958 17.9801 91.8263 19.0382 92.9387 19.0382ZM95.5976 20.1777L95.5433 19.8793C95.0549 20.8289 93.5084 21.263 92.5317 21.263C90.1984 21.263 88.4619 19.1467 88.4619 16.6235C88.4619 14.1274 90.2255 12.0653 92.6674 12.0653C93.0743 12.0653 94.4852 12.1739 95.5704 13.4491L95.6247 13.1506C95.6247 12.608 96.0317 12.1739 96.5743 12.1739C97.117 12.1739 97.5511 12.6351 97.5511 13.1506V20.1506C97.5511 20.6932 97.117 21.1274 96.5743 21.1274C96.0046 21.1545 95.5976 20.6932 95.5976 20.1777ZM104.415 14.3987H104.144C102.57 14.4801 102.272 15.3754 102.272 16.4064V19.8793C102.272 20.5847 101.702 21.1545 101.024 21.1545C100.346 21.1545 99.7759 20.5847 99.7759 19.8793V13.1777C99.7759 12.6351 100.21 12.201 100.753 12.201C101.295 12.201 101.702 12.6622 101.702 13.1777C102.625 12.3095 103.384 12.1196 104.144 12.0925H104.388C104.985 12.0925 105.528 12.608 105.528 13.2591C105.555 13.856 105.012 14.3987 104.415 14.3987ZM114.047 19.2824C114.156 19.4723 114.237 19.6622 114.237 19.8793C114.237 20.5305 113.64 21.1274 112.989 21.1274C112.555 21.1274 112.175 20.8018 111.877 20.4219L109.001 17.0847V19.8522C109.001 20.5576 108.431 21.1274 107.753 21.1274C107.074 21.1274 106.505 20.5576 106.505 19.8522V9.67774C106.505 8.97231 107.047 8.40254 107.753 8.40254C108.458 8.40254 109.001 8.97231 109.001 9.67774V16.0266L111.877 12.8522C112.175 12.5266 112.528 12.1739 112.962 12.1739C113.586 12.1739 114.156 12.7436 114.156 13.3948C114.156 13.5847 114.101 13.8018 113.993 13.9646L111.714 16.4607L114.047 19.2824ZM118.931 14.4258C118.253 14.4258 117.14 14.7785 117.14 15.8367H120.749C120.722 14.7785 119.582 14.4258 118.931 14.4258ZM122.187 17.4374H117.14C117.14 18.9297 118.578 19.1739 119.202 19.1739C119.663 19.1739 120.315 19.0925 120.83 18.8483C120.993 18.7397 121.237 18.6584 121.481 18.6584C122.024 18.6584 122.485 19.1196 122.485 19.6894C122.485 20.0692 122.241 20.3948 121.943 20.5847C121.183 21.1545 120.179 21.2901 119.229 21.2901C116.706 21.2901 114.617 19.9336 114.617 16.7591C114.617 14.263 115.892 12.0925 118.877 12.0925C121.291 12.0925 123.109 13.6661 123.163 16.4607C123.163 16.9762 122.729 17.4374 122.187 17.4374ZM129.132 21.263H128.454C126.555 21.263 125.443 20.4219 125.443 17.4646V14.3987H124.791C124.194 14.3987 123.679 13.856 123.679 13.2591C123.679 12.608 124.222 12.0925 124.791 12.0925H125.443V9.732C125.443 9.02658 125.985 8.45681 126.691 8.45681C127.369 8.45681 127.939 9.02658 127.939 9.732V12.0925H128.97C129.567 12.0925 130.082 12.608 130.082 13.2591C130.082 13.856 129.539 14.3987 128.97 14.3987H127.939V16.9762C127.939 18.6855 128.02 19.0382 128.78 19.0382H129.132C129.729 19.0382 130.245 19.5266 130.245 20.1506C130.245 20.7475 129.729 21.263 129.132 21.263ZM141.206 9.37929C141.532 9.56921 141.83 10.0304 141.83 10.4374C141.83 11.0886 141.288 11.6312 140.663 11.6312C140.501 11.6312 140.365 11.577 140.229 11.5498C139.497 11.0072 138.574 10.6545 137.598 10.6545C135.291 10.6545 133.718 12.5266 133.718 14.8599C133.718 17.1932 135.319 19.0382 137.598 19.0382C138.737 19.0382 139.768 18.577 140.528 17.8444C140.718 17.7087 140.962 17.6273 141.206 17.6273C141.83 17.6273 142.319 18.1157 142.319 18.7397C142.319 19.1467 142.074 19.4994 141.776 19.6894C140.663 20.639 139.171 21.263 137.625 21.263C134.098 21.263 131.222 18.3599 131.222 14.7785C131.222 11.1971 134.098 8.29401 137.625 8.29401C138.927 8.26688 140.202 8.67386 141.206 9.37929ZM147.528 19.0382C148.64 19.0382 149.59 18.0343 149.59 16.6777C149.59 15.3211 148.613 14.4258 147.528 14.4258C146.415 14.4258 145.547 15.3483 145.547 16.6777C145.547 17.9801 146.443 19.0382 147.528 19.0382ZM150.187 20.1777L150.132 19.8793C149.644 20.8289 148.098 21.263 147.121 21.263C144.787 21.263 143.051 19.1467 143.051 16.6235C143.051 14.1274 144.815 12.0653 147.256 12.0653C147.663 12.0653 149.074 12.1739 150.16 13.4491L150.214 13.1506C150.214 12.608 150.621 12.1739 151.163 12.1739C151.706 12.1739 152.14 12.6351 152.14 13.1506V20.1506C152.14 20.6932 151.706 21.1274 151.163 21.1274C150.594 21.1545 150.187 20.6932 150.187 20.1777ZM158.95 19.0382C160.063 19.0382 160.931 17.9801 160.931 16.6777C160.931 15.3211 160.036 14.4258 158.95 14.4258C157.838 14.4258 156.888 15.3211 156.888 16.6777C156.888 18.0343 157.838 19.0382 158.95 19.0382ZM156.888 20.5304V23.7049C156.888 24.4103 156.319 24.9801 155.64 24.9801C154.962 24.9801 154.392 24.4103 154.392 23.7049V13.1777C154.392 12.6351 154.826 12.201 155.369 12.201C155.912 12.201 156.319 12.6622 156.319 13.2863C157.241 12.3366 158.381 12.0925 159.249 12.0925C161.663 12.0925 163.454 14.1274 163.454 16.6506C163.454 19.1467 161.745 21.2901 159.384 21.2901C158.652 21.263 157.567 21.046 156.888 20.5304Z" fill="white" fill-opacity="0.7"/>
</svg>
