<svg width="117" height="71" viewBox="0 0 117 71" fill="none" xmlns="http://www.w3.org/2000/svg">
<path d="M28.6043 20.6871L13.2806 19.1547V0H0V7.15109C0 21.9641 5.87412 27.072 13.0252 29.3705H0V46.9929C0 64.1044 8.42806 71.0001 24.7734 71.0001C41.1188 71.0001 49.5468 64.1044 49.5468 46.9929V44.6943C49.8022 24.2626 38.8202 21.7087 28.6043 20.6871ZM36.5216 58.9965H13.2806V29.6259C15.8345 30.3921 18.6439 30.9029 21.1979 31.1583L36.5216 33.4569V58.9965ZM67.9354 0C63.849 0 61.0396 2.80936 61.0396 6.89569C61.0396 10.982 63.849 13.7914 67.9354 13.7914C72.0217 13.7914 74.831 10.982 74.831 6.89569C75.0864 2.80936 72.2771 0 67.9354 0ZM99.8599 20.4317V8.42807H86.8346C86.8346 25.5396 95.2627 32.4353 111.608 32.4353H116.971V20.4317H99.8599ZM99.8599 30.9029H86.8346V46.9929C86.8346 64.1044 95.2627 71.0001 111.608 71.0001H116.971V58.9965H99.8599V30.9029ZM61.5505 71.0001H74.831V20.4317H61.5505V71.0001Z" fill="#0B1133" fill-opacity="0.3"/>
</svg>
