<svg width="505" height="101" viewBox="0 0 505 101" fill="none" xmlns="http://www.w3.org/2000/svg">
  <path
    d="M30.8888 42.436L50.5035 22.8293L70.1262 42.452L81.5329 31.0373L50.5035 0L19.4741 31.0294L30.8888 42.436Z"
    fill="#0B1133" fill-opacity="0.3" />
  <path d="M0 50.4993L11.4105 39.0888L22.821 50.4993L11.4105 61.9097L0 50.4993Z" fill="#0B1133"
    fill-opacity="0.3" />
  <path
    d="M30.8919 58.5639L50.5066 78.1786L70.1292 58.5559L81.5439 69.9547L81.5359 69.9626L50.5066 101L19.4772 69.9786L19.4612 69.9626L30.8919 58.5639Z"
    fill="#0B1133" fill-opacity="0.3" />
  <path d="M78.1709 50.5081L89.5814 39.0976L100.992 50.5081L89.5814 61.9186L78.1709 50.5081Z"
    fill="#0B1133" fill-opacity="0.3" />
  <path
    d="M62.0782 50.5004L50.504 38.9182L41.945 47.4772L40.9559 48.4583L38.9298 50.4844L38.9139 50.5004L38.9298 50.5243L50.504 62.0905L62.0782 50.5084L62.0862 50.5004H62.0782Z"
    fill="#0B1133" fill-opacity="0.3" />
  <path
    d="M118.795 24.4601H143.619C149.777 24.4601 154.435 26.0554 157.594 29.2461C158.784 30.4247 159.722 31.8328 160.352 33.385C160.981 34.9372 161.288 36.6011 161.255 38.2757V38.4273C161.277 39.7991 161.086 41.166 160.689 42.4794C160.336 43.6101 159.823 44.6845 159.165 45.6701C158.553 46.5995 157.812 47.4374 156.964 48.1588C156.136 48.8717 155.228 49.4873 154.26 49.9935C157.053 50.9663 159.564 52.6097 161.574 54.7795C163.35 56.8002 164.239 59.5921 164.239 63.155V63.3066C164.289 65.5317 163.805 67.7365 162.827 69.7358C161.879 71.5779 160.489 73.1564 158.782 74.3304C156.853 75.6241 154.704 76.5566 152.441 77.0823C149.752 77.7199 146.996 78.028 144.233 77.9997H118.795V24.4601ZM141.13 46.1088C143.278 46.2126 145.415 45.7505 147.328 44.7687C148.074 44.333 148.683 43.697 149.086 42.9329C149.489 42.1689 149.671 41.3071 149.609 40.4454V40.2938C149.649 39.4998 149.488 38.7086 149.14 37.9934C148.793 37.2781 148.271 36.662 147.623 36.2018C146.299 35.2605 144.387 34.7899 141.888 34.7899H130.274V46.1088H141.13ZM144.265 67.6858C146.405 67.8057 148.534 67.3161 150.407 66.2739C151.136 65.8052 151.727 65.1495 152.117 64.3751C152.507 63.6007 152.682 62.7359 152.624 61.8708V61.7192C152.653 60.8969 152.48 60.0801 152.12 59.3402C151.76 58.6004 151.224 57.9602 150.559 57.4756C149.187 56.412 146.969 55.8803 143.906 55.8803H130.274V67.6858H144.265Z"
    fill="#0B1133" fill-opacity="0.3" />
  <path d="M179.026 24.4601H190.808V78.0156H179.026V24.4601Z" fill="#0B1133" fill-opacity="0.3" />
  <path
    d="M208.636 24.4601H219.5L244.611 57.4198V24.4601H256.241V78.0156H246.214L220.282 43.9711V78.0156H208.636V24.4601Z"
    fill="#0B1133" fill-opacity="0.3" />
  <path
    d="M291.912 24.0813H302.76L325.709 78.0197H313.409L308.511 66.0068H285.866L280.968 78.0197H268.955L291.912 24.0813ZM304.308 55.6052L297.177 38.2319L290.077 55.6052H304.308Z"
    fill="#0B1133" fill-opacity="0.3" />
  <path
    d="M338.448 24.4601H349.312L374.406 57.4198V24.4601H386.037V78.0156H376.01L350.078 43.9711V78.0156H338.448V24.4601Z"
    fill="#0B1133" fill-opacity="0.3" />
  <path
    d="M428.441 78.9617C424.686 78.9938 420.964 78.2667 417.497 76.824C414.233 75.4764 411.272 73.4891 408.789 70.9794C406.305 68.4697 404.349 65.4882 403.035 62.2106C401.649 58.7823 400.947 55.116 400.969 51.4182V51.2666C400.908 43.9777 403.712 36.9564 408.778 31.7157C411.271 29.1558 414.256 27.1263 417.553 25.7491C421.139 24.2636 424.99 23.5227 428.872 23.5715C431.167 23.5544 433.46 23.7601 435.716 24.1857C437.646 24.5508 439.533 25.1148 441.347 25.8688C442.993 26.5617 444.558 27.4337 446.014 28.4692C447.434 29.4791 448.768 30.605 450.002 31.8354L442.512 40.4821C440.598 38.7164 438.451 37.2214 436.13 36.0391C433.851 34.9492 431.35 34.4031 428.824 34.4437C426.721 34.4213 424.638 34.8464 422.713 35.6909C420.788 36.5353 419.064 37.7797 417.656 39.3414C416.261 40.8992 415.168 42.7035 414.434 44.6619C413.665 46.7315 413.279 48.9234 413.293 51.131V51.2826C413.286 53.487 413.672 55.6751 414.434 57.7437C415.159 59.7091 416.24 61.5237 417.625 63.0961C419.021 64.6772 420.74 65.9399 422.667 66.7986C424.594 67.6574 426.683 68.0921 428.792 68.0735C431.478 68.1581 434.143 67.5801 436.553 66.3904C438.847 65.1401 440.969 63.5955 442.863 61.7959L450.361 69.3737C449.037 70.8107 447.605 72.144 446.077 73.3621C444.577 74.5487 442.947 75.5628 441.22 76.3852C439.379 77.2518 437.439 77.8919 435.444 78.2917C433.139 78.7539 430.792 78.9784 428.441 78.9617Z"
    fill="#0B1133" fill-opacity="0.3" />
  <path
    d="M464.267 24.4601H504.573V34.9414H475.857V45.8057H501.143V56.2871H475.897V67.5342H504.972V78.0156H464.291L464.267 24.4601Z"
    fill="#0B1133" fill-opacity="0.3" />
</svg>
