<svg width="475" height="85" viewBox="0 0 475 85" fill="none" xmlns="http://www.w3.org/2000/svg">
<path d="M95.8675 23.6888C78.6119 23.6888 65.129 36.7879 65.129 54.3238C65.129 71.8597 78.2713 84.8467 95.8675 84.8467C113.464 84.8467 126.835 71.6355 126.835 54.2117C126.835 36.9 113.692 23.6888 95.8675 23.6888ZM95.9839 72.2089C86.1575 72.2089 78.9568 64.5771 78.9568 54.3281C78.9568 43.9626 86.041 36.3351 95.8675 36.3351C105.81 36.3351 113.007 44.0791 113.007 54.3281C113.007 64.5771 105.81 72.2089 95.9839 72.2089ZM130.603 37.0164H139.175V83.7127H152.886V24.8271H130.603V37.0164ZM30.6221 36.3308C37.8227 36.3308 43.5358 40.7719 45.7046 47.3775H60.2179C57.5878 33.2566 45.9331 23.6888 30.7385 23.6888C13.4829 23.6888 0 36.7879 0 54.3281C0 71.8683 13.1422 84.851 30.7385 84.851C45.5925 84.851 57.4757 75.2832 60.1058 61.0458H45.7046C43.6479 67.6514 37.9348 72.2089 30.7342 72.2089C20.7913 72.2089 13.8235 64.5771 13.8235 54.3281C13.8278 43.9626 20.6835 36.3308 30.6221 36.3308ZM391.128 48.6323L381.073 47.1533C376.274 46.4721 372.846 44.8767 372.846 41.1169C372.846 37.0164 377.304 34.9683 383.358 34.9683C389.985 34.9683 394.215 37.8141 395.129 42.4837H408.383C406.896 30.6393 397.755 23.6931 383.703 23.6931C369.19 23.6931 359.592 31.0964 359.592 41.5739C359.592 51.5944 365.878 57.4067 378.559 59.2262L388.614 60.7052C393.529 61.3864 396.272 63.3267 396.272 66.9702C396.272 71.6398 391.473 73.5758 384.846 73.5758C376.731 73.5758 372.16 70.2729 371.475 65.2627H357.992C359.251 76.7665 368.275 84.851 384.729 84.851C399.7 84.851 409.638 78.0169 409.638 66.2846C409.638 55.807 402.442 50.3397 391.128 48.6323ZM146.03 0.569151C141.003 0.569151 137.23 4.21258 137.23 9.22284C137.23 14.2331 140.999 17.8765 146.03 17.8765C151.058 17.8765 154.831 14.2331 154.831 9.22284C154.831 4.21258 151.058 0.569151 146.03 0.569151ZM347.251 44.9888C347.251 32.2347 339.482 23.6931 323.028 23.6931C307.488 23.6931 298.805 31.5534 297.088 43.6263H310.688C311.373 38.9567 315.03 35.0847 322.799 35.0847C329.772 35.0847 333.199 38.159 333.199 41.9189C333.199 46.817 326.913 48.0674 319.143 48.8651C308.631 50.0034 295.605 53.6468 295.605 67.3151C295.605 77.9091 303.491 84.7389 316.06 84.7389C325.887 84.7389 332.057 80.6384 335.144 74.1449C335.601 79.9528 339.943 83.7127 346.001 83.7127H353.999V71.5277H347.256V44.9888H347.251ZM333.769 59.7954C333.769 67.6557 326.913 73.4636 318.57 73.4636C313.426 73.4636 309.084 71.2992 309.084 66.7459C309.084 60.938 316.056 59.3427 322.454 58.6614C328.625 58.0923 332.052 56.7254 333.769 54.1039V59.7954ZM260.982 23.6888C253.324 23.6888 246.926 26.8795 242.355 32.2304V0H228.644V83.7127H242.127V75.9688C246.697 81.5482 253.212 84.851 260.982 84.851C277.435 84.851 289.892 71.8683 289.892 54.3281C289.892 36.7879 277.207 23.6888 260.982 23.6888ZM258.925 72.2089C249.099 72.2089 241.898 64.5771 241.898 54.3281C241.898 44.0791 249.211 36.3351 259.037 36.3351C268.98 36.3351 275.948 43.9669 275.948 54.3281C275.948 64.5771 268.752 72.2089 258.925 72.2089ZM195.848 23.6888C186.936 23.6888 181.107 27.3322 177.679 32.4589V24.8271H164.079V83.7084H177.791V51.7065C177.791 42.7079 183.504 36.3308 191.959 36.3308C199.845 36.3308 204.757 41.9102 204.757 49.9991V83.7127H218.468V48.9772C218.472 34.1663 210.819 23.6888 195.848 23.6888ZM475 52.3921C475 35.5375 462.66 23.6931 446.09 23.6931C428.493 23.6931 415.58 36.9043 415.58 54.3281C415.58 72.666 429.408 84.851 446.318 84.851C460.603 84.851 471.801 76.4215 474.655 64.465H460.37C458.313 69.7038 453.286 72.666 446.542 72.666C437.742 72.666 431.115 67.1987 429.632 57.6309H474.996V52.3921H475ZM430.434 47.8346C432.607 39.6336 438.777 35.6496 445.861 35.6496C453.631 35.6496 459.573 40.0907 460.944 47.8346H430.434Z" fill="#0B1133" fill-opacity="0.3"/>
</svg>
