<svg width="321" height="107" viewBox="0 0 321 107" fill="none" xmlns="http://www.w3.org/2000/svg">
<path d="M60.0304 69.3846H56.9298L53.2179 65.9785V64.2317L57.0608 60.5636V54.7557L62.0828 51.4806L67.8035 55.8037L60.0304 69.3846ZM47.1916 60.2142L47.7593 54.7557L45.8815 49.8648H56.9735L55.1394 54.7557L55.6634 60.2142H51.3838H47.1916ZM49.7244 65.9785L46.0125 69.4283H42.8683L35.0515 55.8037L40.8158 51.5242L45.8815 54.7557V60.5636L49.7244 64.2317V65.9785ZM42.8246 39.7775H59.9867L62.0392 48.5111H40.8158L42.8246 39.7775ZM51.4275 28.9041L29.6365 41.4805V66.6335L51.4275 79.2099L73.2185 66.6335V41.4805L51.4275 28.9041Z" fill="#0B1133" fill-opacity="0.3"/>
<path d="M60.0304 69.2729H56.9298L53.2179 65.8668V64.12L57.0608 60.4519V54.644L62.0828 51.3689L67.8035 55.692L60.0304 69.2729ZM47.1916 60.1025L47.7593 54.644L45.8815 49.7531H56.9735L55.1394 54.644L55.6634 60.1025H51.3838H47.1916ZM49.7244 65.8668L46.0125 69.3166H42.8683L35.0515 55.692L40.8158 51.4125L45.8815 54.644V60.4519L49.7244 64.12V65.8668ZM42.8246 39.6658H59.9867L62.0392 48.3994H40.8158L42.8246 39.6658ZM51.4275 28.7924L29.6365 41.3688V66.5218L51.4275 79.0983L73.2185 66.5218V41.3688L51.4275 28.7924Z" fill="#B6B8C2"/>
<path d="M97.6321 65.3849C91.8675 65.3849 87.6314 60.8869 87.6314 55.3408C87.6314 49.7947 91.9112 45.1656 97.6758 45.1656C101.344 45.1656 103.615 46.5194 105.406 48.4846L102.654 51.4541C101.3 50.013 99.8593 49.0523 97.6321 49.0523C94.4004 49.0523 92.0422 51.8472 92.0422 55.2534C92.0422 58.747 94.4441 61.5419 97.8504 61.5419C99.9467 61.5419 101.475 60.5375 102.873 59.1401L105.537 61.8039C103.615 63.8564 101.388 65.3849 97.6321 65.3849Z" fill="#0B1133" fill-opacity="0.3"/>
<path d="M113.965 65.3818H109.511V45.2062H113.965V49.9226C115.188 47.0404 117.415 45.0316 120.821 45.2062V49.9226H120.559C116.673 49.9226 113.965 52.4555 113.965 57.6085V65.3818Z" fill="#0B1133" fill-opacity="0.3"/>
<path d="M144.1 45.1183L134.274 70.7963H129.776L131.916 65.3812L123.487 45.1183H128.247L133.968 60.0971L139.471 45.1183H144.1Z" fill="#0B1133" fill-opacity="0.3"/>
<path d="M157.201 49.0049C154.187 49.0049 151.567 51.4504 151.567 55.2497C151.567 59.049 154.231 61.4946 157.201 61.4946C160.258 61.4946 162.747 59.0927 162.747 55.2497C162.747 51.4068 160.214 49.0049 157.201 49.0049ZM158.205 65.3375C155.017 65.3375 153.008 63.7217 151.655 61.9312V70.7963H147.2V45.1183H151.655V48.7429C153.096 46.7341 155.105 45.1183 158.205 45.1183C162.791 45.1183 167.245 48.7429 167.245 55.2061C167.245 61.6692 162.834 65.3375 158.205 65.3375Z" fill="#0B1133" fill-opacity="0.3"/>
<path d="M176.983 49.3576V58.8777C176.983 60.5808 177.856 61.2796 179.384 61.2796H181.131V65.2535H178.074C174.843 65.2535 172.528 63.8124 172.528 59.5764V49.3576H170.083V45.5583H172.528V40.2306H176.983V45.5583H181.131V49.3576H176.983Z" fill="#0B1133" fill-opacity="0.3"/>
<path d="M195.151 49.0086C191.57 49.0086 189.299 51.8035 189.299 55.2098C189.299 58.6597 191.745 61.4983 195.195 61.4983C198.776 61.4983 201.047 58.7034 201.047 55.2971C201.134 51.8472 198.645 49.0086 195.151 49.0086ZM195.151 65.3849C189.256 65.3849 184.888 60.8869 184.888 55.3408C184.888 49.751 189.299 45.1656 195.239 45.1656C201.178 45.1656 205.545 49.6637 205.545 55.2534C205.545 60.7559 201.178 65.3849 195.151 65.3849Z" fill="#0B1133" fill-opacity="0.3"/>
<path d="M248.036 49.0086C244.455 49.0086 242.184 51.8035 242.184 55.2098C242.184 58.6597 244.629 61.4983 248.079 61.4983C251.66 61.4983 253.931 58.7034 253.931 55.2971C253.975 51.8472 251.529 49.0086 248.036 49.0086ZM248.036 65.3849C242.14 65.3849 237.773 60.8869 237.773 55.3408C237.773 49.751 242.184 45.1656 248.123 45.1656C254.062 45.1656 258.429 49.6637 258.429 55.2534C258.429 60.7559 254.018 65.3849 248.036 65.3849Z" fill="#0B1133" fill-opacity="0.3"/>
<path d="M284.807 45.1183C289.044 45.1183 291.62 47.7822 291.62 52.5422V65.3375H287.166V53.896C287.166 50.7954 285.725 49.1796 283.235 49.1796C280.833 49.1796 279.087 50.8827 279.087 53.9833V65.3812H274.632V53.896C274.632 50.8827 273.147 49.1796 270.702 49.1796C268.256 49.1796 266.553 51.0137 266.553 54.027V65.3812H262.099V45.1619H266.553V48.4809C267.819 46.7777 269.479 45.1619 272.449 45.1619C275.244 45.1619 277.165 46.5157 278.213 48.5682C279.829 46.4721 281.882 45.1183 284.807 45.1183Z" fill="#0B1133" fill-opacity="0.3"/>
<path d="M213.711 61.2785V63.5493L213.58 63.7677L211.615 64.8594H211.353L209.431 63.7677L209.3 63.5493V61.2785L209.431 61.0601L211.353 59.9684H211.615L213.58 61.0601L213.711 61.2785Z" fill="#0B1133" fill-opacity="0.3"/>
<path d="M227.207 65.3403C221.442 65.2093 217.293 60.6239 217.381 55.0778C217.468 49.5317 221.835 44.99 227.643 45.1211C231.312 45.2084 233.583 46.6058 235.329 48.6147L232.534 51.5405C231.224 50.0994 229.783 49.0514 227.556 49.0077C224.324 48.964 221.922 51.6716 221.879 55.1215C221.791 58.6151 224.15 61.4536 227.556 61.4973C229.652 61.541 231.224 60.5802 232.622 59.1828L235.242 61.8903C233.277 63.9428 231.006 65.4276 227.207 65.3403Z" fill="#0B1133" fill-opacity="0.3"/>
</svg>
