<svg width="380" height="128" viewBox="0 0 380 128" fill="none" xmlns="http://www.w3.org/2000/svg">
<path d="M325.064 119.134V127.138H380V91.0391H371.995V119.134H325.064ZM325.064 0V8.00431H371.995V36.1011H380V0H325.064ZM296.733 61.9223V43.3228H309.29C315.413 43.3228 317.61 45.3628 317.61 50.9358V54.2315C317.61 59.9602 315.49 61.9223 309.29 61.9223H296.733ZM316.667 65.2179C322.395 63.7268 326.397 58.3893 326.397 52.0337C326.397 48.0316 324.828 44.4207 321.847 41.5164C318.079 37.9056 313.055 36.1011 306.542 36.1011H288.884V91.0372H296.733V69.1421H308.506C314.548 69.1421 316.981 71.6532 316.981 77.9329V91.0391H324.986V79.1884C324.986 70.5554 322.946 67.2598 316.667 66.3177V65.2179ZM250.587 67.0223H274.76V59.8026H250.587V43.3209H277.114V36.1011H242.582V91.0372H278.291V83.8174H250.587V67.0223ZM224.295 69.9266V73.6932C224.295 81.6197 221.391 84.2105 214.093 84.2105H212.367C205.067 84.2105 201.536 81.8552 201.536 70.9466V56.1917C201.536 45.2052 205.225 42.9278 212.523 42.9278H214.091C221.234 42.9278 223.509 45.5964 223.587 52.974H232.221C231.436 42.1433 224.216 35.3167 213.385 35.3167C208.128 35.3167 203.732 36.9653 200.437 40.1033C195.492 44.7342 192.746 52.5827 192.746 63.5692C192.746 74.1643 195.101 82.0129 199.966 86.8774C203.261 90.0951 207.814 91.8216 212.287 91.8216C216.996 91.8216 221.313 89.9374 223.509 85.8574H224.607V91.0372H231.827V62.7068H210.559V69.9266H224.295ZM155.077 43.3209H163.632C171.717 43.3209 176.112 45.3609 176.112 56.3493V70.789C176.112 81.7755 171.717 83.8174 163.632 83.8174H155.077V43.3209ZM164.338 91.0391C179.328 91.0391 184.899 79.6595 184.899 63.5711C184.899 47.2471 178.935 36.1029 164.18 36.1029H147.227V91.0391H164.338ZM109.324 67.0223H133.496V59.8026H109.324V43.3209H135.849V36.1011H101.317V91.0372H137.027V83.8174H109.324V67.0223ZM63.0202 36.1011H55.0159V91.0372H91.117V83.8174H63.0202V36.1011ZM0 91.0391V127.14H54.9361V119.134H8.00431V91.0391H0ZM0 0V36.1011H8.00431V8.00431H54.9361V0H0Z" fill="#0B1133" fill-opacity="0.3"/>
</svg>
