<svg width="454" height="128" viewBox="0 0 454 128" fill="none" xmlns="http://www.w3.org/2000/svg">
<path d="M58.8001 36.3244C62.2812 40.7136 66.8218 44.119 71.9677 46.3893C77.1137 48.6596 82.7137 49.5677 88.3137 49.1893C88.5408 49.1893 88.7678 49.1893 88.9948 49.3407C89.2218 49.4163 89.3732 49.5677 89.5245 49.7947C89.6759 50.0217 89.6759 50.2488 89.6759 50.4001C89.6759 50.6271 89.6002 50.8542 89.4489 51.0055C86.3462 55.6974 84.4543 61.0704 83.9245 66.6704C83.3948 72.2704 84.2272 77.8705 86.3462 83.0921C86.4218 83.3191 86.4218 83.5461 86.4218 83.7732C86.4218 84.0002 86.2705 84.2272 86.1191 84.3786C85.9678 84.5299 85.8164 84.6813 85.5894 84.7569C85.3624 84.8326 85.1353 84.8326 84.9083 84.7569C79.4597 83.2434 73.784 83.1678 68.3353 84.3786C62.8866 85.5894 57.7407 88.0867 53.4272 91.7191C53.2758 91.8705 53.0488 91.9462 52.8217 91.9462C52.5947 91.9462 52.3677 91.9462 52.1407 91.8705C51.9136 91.7948 51.7623 91.6435 51.6109 91.4921C51.4596 91.3408 51.3839 91.1137 51.3839 90.8867C51.0812 85.2867 49.492 79.838 46.6163 74.9948C43.7406 70.1515 39.8055 66.065 35.0379 63.1137C34.8866 62.9623 34.7352 62.811 34.5839 62.6596C34.5082 62.4326 34.4325 62.2055 34.4325 62.0542C34.4325 61.8272 34.5082 61.6001 34.6595 61.4488C34.8109 61.2974 34.9622 61.1461 35.1893 61.0704C40.4109 59.1028 45.1028 55.8488 48.8109 51.6866C52.519 47.5244 55.1677 42.4542 56.5299 37.0055C56.6055 36.7785 56.6812 36.6271 56.8326 36.4758C56.9839 36.3244 57.2109 36.2487 57.438 36.1731C57.665 36.0974 57.892 36.1731 58.1191 36.1731C58.4974 36.0217 58.7245 36.1731 58.8001 36.3244ZM63.7191 13.4703C73.6326 13.4703 83.3948 16.4217 91.6435 21.946C99.8921 27.4703 106.325 35.3406 110.108 44.4974C113.892 53.6542 114.876 63.7947 112.984 73.5569C111.016 83.3191 106.249 92.2489 99.211 99.2867C92.1732 106.325 83.2434 111.092 73.4813 113.06C63.7191 115.027 53.6542 113.968 44.4217 110.184C35.2649 106.4 27.3947 99.9678 21.8703 91.7191C16.4217 83.3948 13.4703 73.6326 13.4703 63.7191C13.4703 50.4001 18.7676 37.6109 28.2271 28.2271C37.6109 18.7676 50.4001 13.4703 63.7191 13.4703ZM63.7191 0C51.0812 0 38.8217 3.70811 28.3028 10.746C17.8595 17.7838 9.68651 27.6974 4.84326 39.3514C9.10967e-07 51.0055 -1.21081 63.7947 1.21081 76.1299C3.63244 88.4651 9.76219 99.8165 18.6163 108.746C27.546 117.676 38.8974 123.73 51.2326 126.152C63.5677 128.573 76.4326 127.362 88.011 122.519C99.6651 117.676 109.579 109.503 116.616 99.0597C123.654 88.6164 127.362 76.2813 127.362 63.6434C127.362 46.7677 120.627 30.573 108.671 18.6163C96.7894 6.73514 80.5948 0 63.7191 0ZM151.881 73.5569H162.249C162.249 77.5678 165.957 81.0488 172.087 81.0488C178.217 81.0488 182 78.3245 182 74.5407C182 71.1353 179.125 69.3948 175.19 68.5623L168 66.8975C158.087 64.4002 153.471 59.5569 153.471 51.9893C153.471 43.7406 161.341 37.0812 172.39 37.0812C181.546 37.0812 191.309 41.6974 191.309 52.292H180.638C180.638 48.5839 176.627 46.0866 172.692 46.0866C168 46.0866 164.822 48.8109 164.822 52.292C164.822 55.3947 167.925 57.2109 171.254 57.9677L179.352 59.8596C190.779 62.5839 193.276 69.3191 193.276 74.7678C193.276 84.3786 183.211 90.0543 172.238 90.0543C162.249 90.0543 152.033 84.0759 151.881 73.5569ZM198.195 63.4164C198.195 47.2974 210.984 37.1568 226.195 37.1568C241.406 37.1568 254.271 47.3731 254.271 63.4164C254.271 79.5353 241.33 90.0543 226.119 90.0543C210.984 90.0543 198.195 79.5353 198.195 63.4164ZM243.071 63.4164C243.071 53.6542 235.276 47.0704 226.195 47.0704C217.038 47.0704 209.395 53.5785 209.395 63.4164C209.395 73.3299 217.038 79.9137 226.195 79.9137C235.276 79.9137 243.071 73.3299 243.071 63.4164ZM296.574 39.0487L294.606 49.1893C292.109 48.1298 289.46 47.5244 286.736 47.4488C277.049 47.4488 272.509 57.0596 272.509 70.8326V89.0705H261.157V38.292H272.509V49.719C275.233 40.7893 280.606 37.2325 287.493 37.2325C291.049 37.1568 294.909 37.9893 296.574 39.0487ZM354.314 38.2163V88.9948H343.114V81.4272C339.558 87.1786 331.914 90.1299 324.725 90.1299C310.195 90.1299 298.239 79.6867 298.239 63.6434C298.239 47.4488 310.195 37.2325 324.574 37.2325C332.141 37.2325 339.558 40.0325 343.039 45.7839V38.2163H354.314ZM343.039 63.4164C343.039 53.2001 334.26 47.2217 326.012 47.2217C316.855 47.2217 309.514 53.8812 309.514 63.4164C309.514 72.8759 316.931 79.9137 326.012 79.9137C335.017 79.9137 343.039 73.7083 343.039 63.4164ZM398.433 39.0487L396.466 49.1893C393.969 48.1298 391.32 47.5244 388.596 47.4488C378.909 47.4488 374.368 57.0596 374.368 70.8326V89.0705H363.093V38.292H374.444V49.719C377.168 40.7893 382.541 37.2325 389.428 37.2325C392.909 37.1568 396.769 37.9893 398.433 39.0487ZM453.828 67.8812H411.298C412.736 76.1299 419.169 80.1407 427.796 80.1407C433.925 80.1407 439.752 77.6434 442.779 72.9515L451.709 77.1894C447.017 85.6651 437.482 90.0543 427.266 90.0543C411.904 90.0543 399.796 79.5353 399.796 63.4164C399.796 47.2974 412.131 37.1568 427.266 37.1568C442.401 37.1568 453.98 47.3731 453.98 63.3407C454.055 64.7785 453.904 66.292 453.828 67.8812ZM442.931 59.3299C441.947 51.3839 435.742 47.0704 427.569 47.0704C419.396 47.0704 413.19 51.0055 411.601 59.3299H442.931Z" fill="#0B1133" fill-opacity="0.3"/>
</svg>
