<svg width="320" height="107" viewBox="0 0 320 107" fill="none" xmlns="http://www.w3.org/2000/svg">
<path d="M98.7931 28.7928H99.5788L99.7097 28.9238V42.2809L99.5788 54.9833L99.4478 57.2095H99.7097L99.8407 55.5071L101.936 36.7809L102.853 28.9238H104.424L104.555 29.0548V30.6262L102.329 53.019V54.0667L105.865 36.2571L107.043 30.3643L107.436 29.4476L108.745 29.5786L109.924 29.9714V31.019L107.174 44.2452L104.948 54.8524L101.281 72.4L100.757 74.3643L100.234 75.4119L99.4478 76.3286L98.2693 77.1143L97.0907 77.5071H94.9955L93.424 76.8524L92.3764 76.0667L63.8288 47.519H63.5669L65.1383 49.3524L66.4478 51.0548L68.1502 53.15L69.5907 54.9833L71.0312 56.6857L72.3407 58.3881L73.3883 59.6976L73.5193 60.3524L72.9955 60.0905L71.555 58.65L70.5074 57.3405L69.4597 56.2928L68.5431 55.2452L67.1026 53.6738L66.1859 52.6262L64.8764 51.1857L63.9597 50.1381L62.3883 48.4357L60.9478 46.8643L60.0312 45.8167L60.6859 47.1262L61.8645 48.9595L66.5788 56.4238L68.5431 59.5667L70.2455 62.3167L71.2931 64.019V64.5428L70.7693 64.2809L69.9836 63.3643L68.4121 61.0071L66.5788 58.3881L64.4836 55.2452L63.0431 53.2809L61.7336 51.3167L60.1621 49.0905L57.9359 45.8167L57.805 45.4238V45.9476L60.424 51.4476L62.1264 55.1143L63.9597 58.9119L65.6621 62.5786L67.1026 65.5905L68.1502 67.8167V68.4714L67.4955 68.3405L65.924 65.4595L64.4836 62.5786L63.174 60.0905L61.8645 57.4714L60.555 54.9833L58.7216 51.4476L57.4121 48.9595L55.7097 45.6857L56.1026 46.9952L58.1978 53.15L60.1621 58.7809L62.2574 64.9357L63.8288 69.3881L64.4836 71.3524L64.3526 72.0071L63.6978 71.8762L63.0431 70.3047L61.0788 65.1976L58.9836 59.8286L57.0193 54.7214L54.7931 48.9595L53.6145 45.9476V46.3405L56.6264 59.3048L58.8526 68.8643L60.1621 74.4952L60.0312 74.8881L59.3764 75.019L58.9836 74.1024L55.9716 63.1024L53.6145 54.4595L51.5193 46.8643V46.3405H51.2574L51.5193 47.65L53.6145 62.7095L55.4478 75.6738V76.9833L55.3169 77.1143H54.6621L54.4002 76.4595L53.0907 69.2571L51.3883 59.5667L49.6859 50.0071L49.2931 47.7809V47.2571L49.1621 47.3881L49.6859 57.8643L50.7336 77.5071V78.2928L50.3407 78.5547H49.6859L49.424 77.769L47.1978 50.269V48.5667H46.9359V51.7095L46.2812 71.3524L46.0193 78.9476L45.3645 79.2095L44.7097 79.0786L44.5788 78.9476V72.9238L44.7097 61.0071V51.3167L42.7455 68.4714L41.6978 77.769L41.4359 79.0786H39.9955L39.7336 78.8167L39.9955 75.5428L42.0907 54.4595V53.9357L39.2097 68.2095L37.2455 78.0309L36.9836 78.5547L35.2812 78.2928L34.3645 77.9L34.4955 76.7214L37.7693 61.0071L41.174 44.769L43.4002 34.1619L44.3169 32.3286L45.3645 31.2809L46.674 30.6262L48.1145 30.3643L49.555 30.4952L50.8645 31.019L52.174 32.0667L73.6502 53.5428L74.305 54.0667L75.2217 55.1143L80.7217 60.6143L80.9836 60.7452L79.5431 58.9119L77.9717 56.9476L76.5312 55.1143L75.2217 53.5428L73.7812 51.7095L72.0788 49.6143L70.9002 48.0428V47.65L71.424 47.9119L72.6026 49.0905L73.5193 50.1381L75.0907 51.8405L76.2693 53.15L77.1859 54.1976V54.4595H77.4478L78.3645 55.5071L79.5431 56.8167L80.9836 58.3881L81.9002 59.4357L84.2574 62.0547V62.3167H84.5193L83.4717 60.4833L80.3288 55.5071L78.3645 52.3643L73.6502 44.9L73.1264 43.9833V43.5905H73.6502L75.7455 46.6024L77.4478 49.0905L79.5431 52.1024L81.7693 55.3762L83.3407 57.6024L85.305 60.4833L86.4836 62.1857V62.4476H86.7455L85.0431 58.7809L82.9478 54.3286L80.4597 49.0905L78.3645 44.6381L76.1383 39.9238L76.2693 39.5309L76.7931 39.4L78.7574 43.0667L80.4597 46.4714L81.7693 48.9595L84.3883 54.0667L85.6978 56.5548L86.8764 58.7809L88.5788 62.1857H88.7097L87.4002 58.3881L85.305 52.2333L83.3407 46.6024L80.4597 38.2214L79.9359 36.7809V36.1262L80.4597 35.8643L80.9836 36.65L83.0788 42.15L85.0431 47.2571L87.5312 53.6738L89.8883 59.8286L90.805 62.1857L90.5431 60.6143L87.7931 48.8286L84.6502 35.3405L84.2574 33.6381L84.3883 33.1143L85.0431 32.9833L85.4359 33.9L87.5312 41.6262L90.4121 52.2333L92.9002 61.269L93.0312 61.4L91.3288 49.4833L90.1502 40.9714L88.8407 31.5428L88.9717 31.019L89.3645 30.7571H89.7574L90.1502 32.4595L92.2455 44.1143L93.8169 53.15L95.1264 60.3524V60.6143H95.3883L95.2574 60.3524L94.8645 53.5428L93.6859 30.8881V29.5786L93.9478 29.4476H94.7336L94.8645 29.5786L95.5193 37.1738L97.2217 58.519L97.3526 58.9119L97.6145 51.4476L98.2693 31.2809L98.4002 28.9238L98.7931 28.7928Z" fill="#0B1133" fill-opacity="0.3"/>
<path d="M264.971 37.1782H268.899L272.173 37.5711L274.792 38.2258L276.887 39.0116L279.376 40.3211L280.685 41.3687L281.995 42.5473L283.042 43.7258L284.483 46.083L285.399 48.3092L285.923 50.5354L286.185 52.8925V55.2497L285.792 57.9997L285.268 59.9639L284.483 61.9282L283.304 63.8925L281.602 65.8568L280.03 67.1663L277.673 68.6068L275.447 69.5235L273.09 70.1782L270.995 70.5711L268.114 70.833H265.626L262.09 70.4401L259.733 69.9163L257.376 69.1306L254.626 67.6901L253.054 66.5116L251.221 64.6782L250.304 63.3687L249.256 61.5354L248.34 59.0473L247.816 56.2973L247.685 53.6782L247.947 50.7973L248.602 48.0473L249.518 45.952L250.566 44.1187L251.876 42.6782L252.006 42.4163H252.268L252.399 42.0235L253.84 40.8449L255.673 39.6663L257.899 38.6187L260.518 37.833L263.53 37.3092L264.971 37.1782ZM264.971 42.0235L262.483 42.4163L260.256 43.0711L258.161 44.1187L256.852 45.1663L255.411 46.6068L254.364 48.3092L253.709 49.8806L253.316 51.583L253.185 52.6306V55.5116L253.578 57.7377L254.233 59.4401L255.149 61.0116L256.328 62.3211L257.245 63.2377L258.685 64.1544L260.387 64.9401L262.614 65.5949L265.364 65.9877H268.506L271.256 65.5949L273.876 64.8092L276.102 63.6306L277.804 62.1901L278.852 60.8806L279.899 58.7854L280.423 57.2139L280.685 55.5116V52.6306L280.423 50.7973L279.768 48.833L278.852 47.1306L277.804 45.8211L276.495 44.6425L274.792 43.5949L272.828 42.8092L270.864 42.2854L268.899 42.0235H264.971Z" fill="#0B1133" fill-opacity="0.3"/>
<path d="M178.281 38.3577H206.829L207.746 38.4886L207.877 38.7505V42.81L207.615 43.072H182.341V51.4529L186.924 51.322H197.662L203.686 51.4529L203.948 52.1077V55.5124L203.686 56.0362L182.472 56.1672V64.81H195.174L208.139 64.941L208.27 65.072V69.3934L208.139 69.5243L178.674 69.6553L177.758 69.3934L177.234 68.7386L177.103 68.4767V39.4053L177.758 38.6196L178.281 38.3577Z" fill="#0B1133" fill-opacity="0.3"/>
<path d="M135.593 38.3577H139.914L140.962 38.7505L142.009 39.6672L144.366 42.0243L145.283 43.072L148.426 46.2148L149.343 47.2624L152.616 50.5362L153.533 51.5839L157.069 55.1196L157.985 56.1672L160.343 58.5243V58.7862H160.604L161.521 59.8339L163.485 61.7981L163.616 38.4886L164.14 38.3577H168.069L168.723 38.6196V69.3934L168.593 69.5243L164.926 69.6553L163.878 69.2624L162.569 68.0839L159.426 64.941L158.509 63.8934L156.545 61.9291L155.628 60.8815L152.354 57.6077L151.438 56.56L146.854 51.9767L145.938 50.9291L142.14 47.1315L141.223 46.0839L140.307 45.1672L140.176 69.5243L138.997 69.6553H135.593L135.2 69.5243L135.069 69.1315V42.2862L135.2 38.4886L135.593 38.3577Z" fill="#0B1133" fill-opacity="0.3"/>
<path d="M212.459 38.3577H217.959L219.793 40.191L220.709 41.2386L222.15 42.81L223.066 43.8577L224.376 45.2981L225.293 46.3458L226.864 48.0481L228.697 50.1434H228.959L229.876 49.0958L231.316 47.5243L232.757 45.822L234.59 43.8577L235.507 42.81L236.816 41.3696L236.947 41.1077H237.209L237.471 40.5839L239.043 38.8815L240.221 38.3577H244.935L245.328 38.4886L245.066 39.2743L243.888 40.5839L242.447 42.1553L241.269 43.4648L239.828 45.0362L238.65 46.4767L237.602 47.5243L236.685 48.572L234.852 50.5362L233.935 51.5839L232.364 53.2862L232.102 53.5481L232.233 54.072L233.15 55.1196L234.59 56.691L235.769 58.1315L236.816 59.1791L237.995 60.6196L239.959 62.7148L241.138 64.1553L242.185 65.2029L243.364 66.6434L244.412 67.691L245.459 69.0005V69.5243H239.304L237.733 67.822L236.816 66.7743L235.245 65.072L234.328 64.0243L233.15 62.7148L232.233 61.6672L230.793 60.0958L229.614 58.7862L228.697 57.7386H228.435L227.257 58.9172L226.34 59.9648L225.031 61.4053L224.114 62.4529L222.543 64.1553L219.007 68.0839L218.352 68.8696L217.566 69.3934L217.173 69.5243H211.935L211.804 69.1315L212.721 67.9529L214.685 65.8577L215.602 64.81L216.781 63.5005L218.483 61.5362L220.185 59.7029L221.102 58.6553L223.459 56.0362L224.638 54.5958L225.293 53.81L222.412 50.6672L221.495 49.6196L220.316 48.31L219.4 47.2624L217.959 45.691L214.423 41.7624L213.507 40.7148L212.066 39.1434L211.935 38.6196L212.459 38.3577Z" fill="#0B1133" fill-opacity="0.3"/>
</svg>
