<svg width="108" height="101" viewBox="0 0 108 101" fill="none" xmlns="http://www.w3.org/2000/svg">
<path d="M105.541 0H2.39867C1.7625 0 1.1524 0.236467 0.702552 0.657383C0.252714 1.0783 0 1.64919 0 2.24445V98.7556C0 99.3509 0.252714 99.9224 0.702552 100.343C1.1524 100.764 1.7625 101 2.39867 101H105.541C106.178 101 106.787 100.764 107.238 100.343C107.688 99.9224 107.941 99.3509 107.941 98.7556V2.24445C107.941 1.64919 107.688 1.0783 107.238 0.657383C106.787 0.236467 106.178 0 105.541 0ZM71.9601 65.0892C71.9601 65.6844 71.7074 66.2553 71.2576 66.6762C70.8077 67.0971 70.1976 67.3336 69.5615 67.3336H38.3787C37.7426 67.3336 37.1325 67.0971 36.6826 66.6762C36.2328 66.2553 35.98 65.6844 35.98 65.0892V35.9112C35.98 35.316 36.2328 34.7451 36.6826 34.3242C37.1325 33.9032 37.7426 33.6668 38.3787 33.6668H69.5615C70.1976 33.6668 70.8077 33.9032 71.2576 34.3242C71.7074 34.7451 71.9601 35.316 71.9601 35.9112V65.0892Z" fill="#0B1133" fill-opacity="0.3"/>
</svg>
