<svg width="128" height="76" viewBox="0 0 128 76" fill="none" xmlns="http://www.w3.org/2000/svg">
<path d="M110.6 0L99.7874 37.6709C98.3771 42.5913 97.2489 47.6058 96.4027 52.6515C96.4027 52.6829 96.4027 52.7142 96.4027 52.7142H96.0893C95.8072 49.8936 95.0237 47.073 94.5536 44.6911L82.6756 0H58.3556L46.5403 44.6598C46.0702 47.0416 45.318 49.8623 45.0046 52.6829H44.6912C44.6912 52.6515 44.6912 52.6202 44.6912 52.6202C43.845 47.5431 42.7168 42.56 41.3065 37.6396L30.5568 0.0313326H13.3196L18.3654 17.7385H0V30.4H21.9695L25.5737 42.9988H0V55.6916H29.1464L34.9131 76H55.5036L69.4187 22.753C69.8575 20.7785 70.2649 18.6474 70.3589 17.1117H70.6723C70.7663 18.5847 71.1738 20.7785 71.6125 22.753L85.5276 76H106.118L127.774 0.0313326H110.6V0Z" fill="#0B1133" fill-opacity="0.3"/>
</svg>
