<svg width="320" height="107" viewBox="0 0 320 107" fill="none" xmlns="http://www.w3.org/2000/svg">
<g clip-path="url(#clip0_2_37439)">
<path d="M258.854 50.4045V43.6809H250.824V34.9148H243.058V66.8737C243.058 69.8102 243.797 72.048 245.254 73.5253C246.71 75.0038 248.979 75.7533 251.999 75.7533H258.854V69.0298H253.838C252.747 69.0298 251.964 68.7899 251.51 68.3162C251.094 67.8827 250.824 66.7876 250.824 65.5266V50.4045H258.854Z" fill="#0B1133" fill-opacity="0.3"/>
<path d="M151.241 43.6847L143.211 67.0492L135.182 43.6847H127.023L138.615 75.4829H147.808L159.399 43.6847H151.241Z" fill="#0B1133" fill-opacity="0.3"/>
<path d="M203.73 32.1519H195.964V75.4793H203.73V32.1519Z" fill="#0B1133" fill-opacity="0.3"/>
<path d="M230.397 59.6134C230.397 61.6264 230.092 63.3778 229.491 64.8186C228.894 66.2517 228.039 67.3503 226.949 68.0831C225.86 68.8159 224.52 69.1877 222.969 69.1877C220.748 69.1877 219.073 68.4579 217.989 67.0197C216.894 65.566 216.339 63.3628 216.339 60.4717V43.6847H208.573V61.33C208.573 64.0776 208.917 66.408 209.595 68.2557C210.274 70.109 211.206 71.6166 212.365 72.7358C213.524 73.8537 214.878 74.661 216.388 75.1364C217.891 75.6093 219.506 75.8487 221.191 75.8487C223.62 75.8487 225.629 75.4084 227.163 74.5398C228.561 73.7453 229.733 72.8163 230.652 71.7746L231.347 75.4816H238.163V43.6847H230.397V59.6134Z" fill="#0B1133" fill-opacity="0.3"/>
<path d="M184.094 45.3551C181.646 43.9982 178.74 43.3108 175.457 43.3108C172.215 43.3108 169.319 43.9982 166.852 45.3547C164.381 46.7145 162.44 48.6351 161.082 51.0627C159.726 53.4882 159.039 56.363 159.039 59.607C159.039 62.8111 159.726 65.6658 161.082 68.0913C162.44 70.5181 164.381 72.4382 166.852 73.798C169.319 75.1544 172.215 75.8418 175.457 75.8418C178.74 75.8418 181.646 75.1544 184.094 73.7975C186.544 72.4385 188.475 70.5184 189.832 68.0912C191.189 65.6644 191.877 62.8098 191.877 59.6069C191.877 56.3642 191.189 53.4894 189.832 51.0626C188.474 48.6346 186.543 46.7141 184.094 45.3551ZM179.991 68.0749C178.74 68.8896 177.215 69.3029 175.458 69.3029C173.741 69.3029 172.226 68.8896 170.954 68.0746C169.68 67.2586 168.68 66.1069 167.983 64.6511C167.283 63.194 166.927 61.4971 166.927 59.607C166.927 57.6778 167.282 55.9711 167.983 54.5337C168.68 53.0976 169.68 51.9455 170.955 51.109C172.227 50.2734 173.742 49.8498 175.458 49.8498C177.214 49.8498 178.738 50.2734 179.99 51.1081C181.245 51.945 182.235 53.0976 182.933 54.5341C183.633 55.975 183.988 57.6818 183.988 59.607C183.988 61.4929 183.633 63.1902 182.933 64.6512C182.235 66.1073 181.245 67.2591 179.991 68.0749Z" fill="#0B1133" fill-opacity="0.3"/>
<path d="M69.1219 42.8468H61.0513V75.4815H69.1219V42.8468Z" fill="#0B1133" fill-opacity="0.3"/>
<path d="M94.4309 44.7106C94.4309 37.7858 88.7918 32.1519 81.8602 32.1519H61.0514V39.1212H80.8708C84.0077 39.1212 86.6062 41.5857 86.6637 44.6147C86.6923 46.1313 86.1231 47.5627 85.0609 48.645C83.9983 49.7278 82.5785 50.3244 81.0631 50.3244H73.3425C73.0683 50.3244 72.8452 50.5472 72.8452 50.8213V57.0155C72.8452 57.1208 72.8778 57.2215 72.939 57.3063L86.0383 75.4793H95.6272L82.4975 57.2566C89.1097 56.9246 94.4309 51.3691 94.4309 44.7106Z" fill="#0B1133" fill-opacity="0.3"/>
<path d="M119.249 45.17C116.924 43.9361 114.164 43.3108 111.044 43.3108C107.921 43.3108 105.128 43.9987 102.744 45.356C100.356 46.7145 98.4768 48.6355 97.1598 51.0644C95.844 53.4878 95.1771 56.3827 95.1771 59.6691C95.1771 62.8719 95.8543 65.7257 97.1906 68.1516C98.5299 70.5831 100.462 72.4934 102.931 73.8292C105.396 75.1651 108.353 75.8423 111.718 75.8423C114.388 75.8423 116.786 75.342 118.845 74.3548C120.904 73.365 122.585 72.0171 123.842 70.3484C125.036 68.7624 125.841 66.9687 126.235 65.0173L126.277 64.8092H118.554L118.518 64.9342C118.093 66.3896 117.268 67.5396 116.065 68.353C114.774 69.2276 113.189 69.6713 111.352 69.6713C109.795 69.6713 108.389 69.3377 107.173 68.6798C105.963 68.0258 105.017 67.0903 104.361 65.8988C103.703 64.703 103.329 63.2643 103.249 61.6312V61.3759H126.577L126.603 61.2333C126.684 60.7857 126.736 60.3244 126.759 59.8606C126.778 59.4087 126.789 58.9573 126.789 58.5015C126.748 55.4208 126.059 52.7108 124.743 50.4464C123.422 48.1793 121.573 46.404 119.249 45.17ZM116.419 51.1582C117.746 52.2748 118.571 53.8617 118.874 55.8777H103.517C103.693 54.5696 104.127 53.4368 104.809 52.5074C105.525 51.5326 106.442 50.7668 107.535 50.231C108.629 49.6935 109.831 49.4206 111.105 49.4206C113.26 49.4205 115.048 50.0052 116.419 51.1582Z" fill="#0B1133" fill-opacity="0.3"/>
</g>
<defs>
<clipPath id="clip0_2_37439">
<rect width="197.801" height="43.6944" fill="white" transform="translate(61.0509 32.1538)"/>
</clipPath>
</defs>
</svg>
