<svg width="88" height="101" viewBox="0 0 88 101" fill="none" xmlns="http://www.w3.org/2000/svg">
<path d="M61.0223 81.2734H54.7973L47.3449 74.4349V70.9279L55.0604 63.5633V51.9028L65.1431 45.3273L76.6286 54.0069L61.0223 81.2734ZM35.2457 62.862L36.3854 51.9028L32.6154 42.0833H54.885L51.2026 51.9028L52.2547 62.862H43.6625H35.2457ZM40.3308 74.4349L32.8784 81.3611H26.5657L10.8718 54.0069L22.445 45.4149L32.6154 51.9028V63.5633L40.3308 70.9279V74.4349ZM26.4781 21.8307H60.9346L65.0554 39.3655H22.445L26.4781 21.8307ZM43.7502 0L0 25.25V75.75L43.7502 101L87.5004 75.75V25.25L43.7502 0Z" fill="#0B1133" fill-opacity="0.3"/>
</svg>
