<svg width="152" height="101" viewBox="0 0 152 101" fill="none" xmlns="http://www.w3.org/2000/svg">
<path d="M129.07 0H130.644L130.907 0.262338V27.0208L130.644 52.4676L130.382 56.9273H130.907L131.169 53.5169L135.366 16.0026L137.203 0.262338H140.351L140.613 0.524676V3.67273L136.153 48.5325V50.6312L143.237 14.9533L145.598 3.14805L146.385 1.31169L149.008 1.57403L151.369 2.36104V4.45974L145.86 30.9559L141.4 52.2052L134.055 87.3585L133.005 91.2936L131.956 93.3923L130.382 95.2286L128.021 96.8027L125.66 97.5897H121.462L118.314 96.278L116.216 94.704L59.026 37.5143H58.5014L61.6494 41.187L64.2728 44.5974L67.6832 48.7948L70.5689 52.4676L73.4546 55.878L76.078 59.2884L78.1767 61.9117L78.439 63.2234L77.3897 62.6987L74.504 59.813L72.4053 57.1897L70.3066 55.0909L68.4702 52.9922L65.5845 49.8442L63.7481 47.7455L61.1247 44.8598L59.2884 42.7611L56.1403 39.3507L53.2546 36.2026L51.4182 34.1039L52.7299 36.7273L55.091 40.4L64.5351 55.3533L68.4702 61.6494L71.8806 67.1585L73.9793 70.5689V71.6182L72.9299 71.0936L71.3559 69.2572L68.2079 64.5351L64.5351 59.2884L60.3377 52.9922L57.452 49.0572L54.8286 45.1221L51.6806 40.6624L47.2208 34.1039L46.9585 33.3169V34.3663L52.2052 45.3844L55.6156 52.7299L59.2884 60.3377L62.6988 67.6832L65.5845 73.7169L67.6832 78.1767V79.4884L66.3715 79.226L63.2234 73.4546L60.3377 67.6832L57.7143 62.6987L55.091 57.452L52.4676 52.4676L48.7949 45.3844L46.1715 40.4L42.7611 33.8416L43.5481 36.465L47.7455 48.7948L51.6806 60.0754L55.878 72.4053L59.026 81.3247L60.3377 85.2598L60.0754 86.5715L58.7637 86.3092L57.452 83.1611L53.5169 72.9299L49.3195 62.1741L45.3845 51.9429L40.9247 40.4L38.5637 34.3663V35.1533L44.5974 61.1247L49.0572 80.2754L51.6806 91.5559L51.4182 92.3429L50.1065 92.6053L49.3195 90.7689L43.2858 68.7325L38.5637 51.4182L34.3663 36.2026V35.1533H33.8416L34.3663 37.7767L38.5637 67.9455L42.2364 93.917V96.5403L41.9741 96.8027H40.6624L40.1377 95.491L37.5143 81.0624L34.1039 61.6494L30.6935 42.4987L29.9065 38.039V36.9896L29.6442 37.252L30.6935 58.239L32.7922 97.5897V99.1637L32.0052 99.6884H30.6935L30.1689 98.1144L25.7091 43.0234V39.613H25.1844V45.9091L23.8728 85.2598L23.3481 100.475L22.0364 101L20.7247 100.738L20.4624 100.475V88.4079L20.7247 64.5351V45.1221L16.7896 79.4884L14.6909 98.1144L14.1662 100.738H11.2805L10.7559 100.213L11.2805 93.6546L15.4779 51.4182V50.3689L9.7065 78.9637L5.77143 98.639L5.24676 99.6884L1.83637 99.1637L0 98.3767L0.262338 96.0157L6.82079 64.5351L13.6416 32.0052L18.1013 10.7559L19.9377 7.08312L22.0364 4.98442L24.6598 3.67273L27.5455 3.14805L30.4312 3.41039L33.0546 4.45974L35.678 6.55845L78.7014 49.5819L80.0131 50.6312L81.8494 52.7299L92.8676 63.7481L93.3923 64.0104L90.5066 60.3377L87.3585 56.4026L84.4728 52.7299L81.8494 49.5819L78.9637 45.9091L75.5533 41.7117L73.1923 38.5637V37.7767L74.2416 38.3013L76.6027 40.6624L78.439 42.7611L81.5871 46.1715L83.9481 48.7948L85.7845 50.8935V51.4182H86.3092L88.1455 53.5169L90.5066 56.1403L93.3923 59.2884L95.2287 61.3871L99.9507 66.6338V67.1585H100.475L98.3767 63.4858L92.0806 53.5169L88.1455 47.2208L78.7014 32.2676L77.652 30.4312V29.6442H78.7014L82.8988 35.6779L86.3092 40.6624L90.5066 46.6961L94.9663 53.2546L98.1144 57.7143L102.049 63.4858L104.41 66.8962V67.4208H104.935L101.525 60.0754L97.3274 51.1559L92.3429 40.6624L88.1455 31.7429L83.6858 22.2987L83.9481 21.5117L84.9975 21.2494L88.9326 28.5948L92.3429 35.4156L94.9663 40.4L100.213 50.6312L102.836 55.6156L105.198 60.0754L108.608 66.8962H108.87L106.247 59.2884L102.049 46.9585L98.1144 35.6779L92.3429 18.8883L91.2936 16.0026V14.6909L92.3429 14.1662L93.3923 15.7403L97.5897 26.7585L101.525 36.9896L106.509 49.8442L111.231 62.1741L113.068 66.8962L112.543 63.7481L107.034 40.1377L100.738 13.1169L99.9507 9.7065L100.213 8.65715L101.525 8.39481L102.312 10.2312L106.509 25.7091L112.281 46.9585L117.265 65.0598L117.527 65.3221L114.117 41.4494L111.756 24.3974L109.133 5.50909L109.395 4.45974L110.182 3.93507H110.969L111.756 7.34546L115.953 30.6935L119.101 48.7948L121.725 63.2234V63.7481H122.249L121.987 63.2234L121.2 49.5819L118.839 4.19741V1.57403L119.364 1.31169H120.938L121.2 1.57403L122.512 16.7896L125.922 59.5507L126.185 60.3377L126.709 45.3844L128.021 4.98442L128.283 0.262338L129.07 0Z" fill="#0B1133" fill-opacity="0.3"/>
</svg>
