<svg width="320" height="107" viewBox="0 0 320 107" fill="none" xmlns="http://www.w3.org/2000/svg">
<path d="M124.129 35.0885L118.737 53.8727C118.034 56.3262 117.471 58.8266 117.049 61.3426C117.049 61.3583 117.049 61.3739 117.049 61.3739H116.893C116.753 59.9674 116.362 58.561 116.127 57.3733L110.205 35.0885H98.0777L92.1861 57.3576C91.9517 58.5453 91.5766 59.9518 91.4204 61.3583H91.2641C91.2641 61.3426 91.2641 61.327 91.2641 61.327C90.8421 58.7954 90.2796 56.3106 89.5763 53.8571L84.2161 35.1041H75.621L78.137 43.9336H68.9793V50.2471H79.9342L81.7313 56.5294H68.9793V62.8585H83.5128L86.3883 72.9851H96.6556L103.594 46.434C103.813 45.4495 104.016 44.3868 104.063 43.6211H104.219C104.266 44.3556 104.469 45.4495 104.688 46.434L111.627 72.9851H121.894L132.693 35.1041H124.129V35.0885Z" fill="#0B1133" fill-opacity="0.3"/>
<path d="M146.833 35.0885H137.691V72.9695H146.833V35.0885Z" fill="#0B1133" fill-opacity="0.3"/>
<path d="M153.792 35.0885V72.9695H162.183V42.6053H176.108V35.0885H153.792Z" fill="#0B1133" fill-opacity="0.3"/>
<path d="M212.845 45.9061C212.126 43.6089 211.032 41.593 209.579 39.8583C208.126 38.1237 206.282 36.7328 204.031 35.7327C201.797 34.7169 198.968 34.2012 195.921 34.2012C193.076 34.2012 190.357 34.67 188.107 35.6233C185.857 36.5765 183.95 37.8893 182.418 39.6083C180.871 41.3273 179.684 43.3745 178.871 45.7968C178.058 48.219 177.636 50.9226 177.636 53.923C177.636 56.9548 178.058 59.7208 178.902 62.1587C179.746 64.5966 180.965 66.675 182.528 68.3941C184.106 70.1131 186.028 71.4258 188.294 72.3791C190.56 73.3323 193.342 73.8012 196.218 73.8012C199.859 73.8012 203.25 73.1917 206.032 71.9415C208.813 70.7069 210.986 68.9879 212.58 66.8157L207.407 61.2211C206.204 62.7057 204.844 63.9246 203.328 64.8935C201.812 65.8624 199.671 66.3312 197.265 66.3312C194.123 66.3312 191.389 65.503 189.795 63.8621C188.31 62.315 187.513 60.299 187.404 57.8143H213.877L213.924 53.2979C213.939 50.6569 213.58 48.2034 212.845 45.9061ZM204.766 50.1881H187.419V50.0005C187.419 47.3907 188.169 45.9999 189.67 44.3434C191.17 42.6869 193.545 41.7649 196.108 41.7649C198.671 41.7649 201.046 42.7025 202.547 44.3434C204.047 45.9999 204.797 47.3751 204.797 50.0005V50.1881H204.766Z" fill="#0B1133" fill-opacity="0.3"/>
<path d="M213.625 72.9695L227.002 53.6852L213.984 35.0885H224.939L233.003 47.5905H233.316L241.286 35.0885H251.49L238.254 53.8258L251.631 72.9539H240.676L232.394 59.8424H232.081L223.814 72.9695H213.625Z" fill="#0B1133" fill-opacity="0.3"/>
</svg>
